%TF.GenerationSoftware,KiCad,Pcbnew,9.0.5*%
%TF.CreationDate,2025-11-20T08:48:28+01:00*%
%TF.ProjectId,acw02_zb-v1.1,61637730-325f-47a6-922d-76312e312e6b,rev?*%
%TF.SameCoordinates,Original*%
%TF.FileFunction,Copper,L2,Bot*%
%TF.FilePolarity,Positive*%
%FSLAX46Y46*%
G04 Gerber Fmt 4.6, Leading zero omitted, Abs format (unit mm)*
G04 Created by KiCad (PCBNEW 9.0.5) date 2025-11-20 08:48:28*
%MOMM*%
%LPD*%
G01*
G04 APERTURE LIST*
G04 Aperture macros list*
%AMRoundRect*
0 Rectangle with rounded corners*
0 $1 Rounding radius*
0 $2 $3 $4 $5 $6 $7 $8 $9 X,Y pos of 4 corners*
0 Add a 4 corners polygon primitive as box body*
4,1,4,$2,$3,$4,$5,$6,$7,$8,$9,$2,$3,0*
0 Add four circle primitives for the rounded corners*
1,1,$1+$1,$2,$3*
1,1,$1+$1,$4,$5*
1,1,$1+$1,$6,$7*
1,1,$1+$1,$8,$9*
0 Add four rect primitives between the rounded corners*
20,1,$1+$1,$2,$3,$4,$5,0*
20,1,$1+$1,$4,$5,$6,$7,0*
20,1,$1+$1,$6,$7,$8,$9,0*
20,1,$1+$1,$8,$9,$2,$3,0*%
G04 Aperture macros list end*
%TA.AperFunction,ComponentPad*%
%ADD10C,2.600000*%
%TD*%
%TA.AperFunction,ComponentPad*%
%ADD11RoundRect,0.250000X0.725000X-0.600000X0.725000X0.600000X-0.725000X0.600000X-0.725000X-0.600000X0*%
%TD*%
%TA.AperFunction,ComponentPad*%
%ADD12O,1.950000X1.700000*%
%TD*%
%TA.AperFunction,ViaPad*%
%ADD13C,0.600000*%
%TD*%
%TA.AperFunction,ViaPad*%
%ADD14C,0.700000*%
%TD*%
%TA.AperFunction,Conductor*%
%ADD15C,1.000000*%
%TD*%
%TA.AperFunction,Conductor*%
%ADD16C,0.300000*%
%TD*%
%TA.AperFunction,Conductor*%
%ADD17C,0.500000*%
%TD*%
%TA.AperFunction,Conductor*%
%ADD18C,0.200000*%
%TD*%
G04 APERTURE END LIST*
D10*
%TO.P,J2,1,Pin_1*%
%TO.N,GPIO1HV*%
X116200000Y-96200000D03*
%TD*%
%TO.P,J5,1,Pin_1*%
%TO.N,GND*%
X140900000Y-88800000D03*
%TD*%
%TO.P,J4,1,Pin_1*%
%TO.N,+5V*%
X140900000Y-92600000D03*
%TD*%
%TO.P,J3,1,Pin_1*%
%TO.N,GPIO2HV*%
X100900000Y-91800000D03*
%TD*%
D11*
%TO.P,J1,1,Pin_1*%
%TO.N,RX_5V*%
X133955000Y-79450000D03*
D12*
%TO.P,J1,2,Pin_2*%
%TO.N,TX_5V*%
X133955000Y-76950000D03*
%TO.P,J1,3,Pin_3*%
%TO.N,GND*%
X133955000Y-74450000D03*
%TO.P,J1,4,Pin_4*%
%TO.N,+12V*%
X133955000Y-71950000D03*
%TD*%
D13*
%TO.N,GND*%
X138100000Y-89000000D03*
X139800000Y-84900000D03*
X142000000Y-84900000D03*
D14*
%TO.N,+5V*%
X114400000Y-81500000D03*
D13*
%TO.N,GND*%
X129700000Y-88900000D03*
X110700000Y-98300000D03*
X127000000Y-89250000D03*
X126000000Y-93000000D03*
X98800000Y-79300000D03*
X117500000Y-77000000D03*
X104000000Y-79300000D03*
X92000000Y-98300000D03*
X120000000Y-89000000D03*
X106500000Y-70500000D03*
X127250000Y-86750000D03*
X103600000Y-94300000D03*
X130600000Y-69000000D03*
X130600000Y-69000000D03*
X136900000Y-73100000D03*
X136900000Y-75600000D03*
X106500000Y-72600000D03*
X113100000Y-95400000D03*
X116000000Y-90000000D03*
X114000000Y-74500000D03*
X131600000Y-75500000D03*
X126500000Y-89000000D03*
X98000000Y-92100000D03*
X129100000Y-89250000D03*
X107500000Y-78000000D03*
X111500000Y-89700000D03*
%TO.N,+3.3V*%
X112500000Y-92500000D03*
X107412500Y-90500000D03*
X97400000Y-90400000D03*
X125250000Y-89250000D03*
%TO.N,RX*%
X110165000Y-80080000D03*
X119500000Y-90850000D03*
%TO.N,Net-(U3-EN)*%
X123865000Y-79475000D03*
X121500000Y-73500000D03*
%TO.N,Net-(U3-FB)*%
X125000000Y-86400000D03*
X126405000Y-79475000D03*
%TD*%
D15*
%TO.N,+5V*%
X132149000Y-87849000D02*
X120749000Y-87849000D01*
X136900000Y-92600000D02*
X132149000Y-87849000D01*
X120749000Y-87849000D02*
X114400000Y-81500000D01*
X140900000Y-92600000D02*
X136900000Y-92600000D01*
D16*
%TO.N,+3.3V*%
X122750000Y-93000000D02*
X113000000Y-93000000D01*
D17*
X104300000Y-89100000D02*
X105700000Y-90500000D01*
X99300000Y-89100000D02*
X104300000Y-89100000D01*
D16*
X125250000Y-90500000D02*
X122750000Y-93000000D01*
X125250000Y-89250000D02*
X125250000Y-90500000D01*
D17*
X105700000Y-90500000D02*
X107412500Y-90500000D01*
X98000000Y-90400000D02*
X99300000Y-89100000D01*
D16*
X113000000Y-93000000D02*
X112500000Y-92500000D01*
D17*
X97400000Y-90400000D02*
X98000000Y-90400000D01*
D18*
%TO.N,RX*%
X112500000Y-82415000D02*
X110165000Y-80080000D01*
X119350000Y-91000000D02*
X115500000Y-91000000D01*
X115500000Y-91000000D02*
X112500000Y-88000000D01*
X119500000Y-90850000D02*
X119350000Y-91000000D01*
X112500000Y-88000000D02*
X112500000Y-82415000D01*
%TO.N,Net-(U3-EN)*%
X123865000Y-75865000D02*
X123865000Y-79475000D01*
X121500000Y-73500000D02*
X123865000Y-75865000D01*
%TO.N,Net-(U3-FB)*%
X126405000Y-85095000D02*
X126405000Y-79475000D01*
X125100000Y-86400000D02*
X126405000Y-85095000D01*
X125000000Y-86400000D02*
X125100000Y-86400000D01*
%TD*%
%TA.AperFunction,Conductor*%
%TO.N,GND*%
G36*
X142506922Y-67501280D02*
G01*
X142597266Y-67511459D01*
X142624331Y-67517636D01*
X142703540Y-67545352D01*
X142728553Y-67557398D01*
X142799606Y-67602043D01*
X142821313Y-67619355D01*
X142880644Y-67678686D01*
X142897957Y-67700395D01*
X142942600Y-67771444D01*
X142954648Y-67796462D01*
X142982362Y-67875666D01*
X142988540Y-67902735D01*
X142998720Y-67993076D01*
X142999500Y-68006961D01*
X142999500Y-98993038D01*
X142998720Y-99006923D01*
X142988540Y-99097264D01*
X142982362Y-99124333D01*
X142954648Y-99203537D01*
X142942600Y-99228555D01*
X142897957Y-99299604D01*
X142880644Y-99321313D01*
X142821313Y-99380644D01*
X142799604Y-99397957D01*
X142728555Y-99442600D01*
X142703538Y-99454647D01*
X142630564Y-99480182D01*
X142589609Y-99487141D01*
X90910391Y-99487141D01*
X90869438Y-99480183D01*
X90798289Y-99455287D01*
X90741514Y-99414566D01*
X90715767Y-99349613D01*
X90715245Y-99338246D01*
X90715245Y-96081995D01*
X114399500Y-96081995D01*
X114399500Y-96318004D01*
X114399501Y-96318020D01*
X114430306Y-96552010D01*
X114491394Y-96779993D01*
X114581714Y-96998045D01*
X114581719Y-96998056D01*
X114652677Y-97120957D01*
X114699727Y-97202450D01*
X114699729Y-97202453D01*
X114699730Y-97202454D01*
X114843406Y-97389697D01*
X114843412Y-97389704D01*
X115010295Y-97556587D01*
X115010301Y-97556592D01*
X115197550Y-97700273D01*
X115328918Y-97776118D01*
X115401943Y-97818280D01*
X115401948Y-97818282D01*
X115401951Y-97818284D01*
X115620007Y-97908606D01*
X115847986Y-97969693D01*
X116081989Y-98000500D01*
X116081996Y-98000500D01*
X116318004Y-98000500D01*
X116318011Y-98000500D01*
X116552014Y-97969693D01*
X116779993Y-97908606D01*
X116998049Y-97818284D01*
X117202450Y-97700273D01*
X117389699Y-97556592D01*
X117556592Y-97389699D01*
X117700273Y-97202450D01*
X117818284Y-96998049D01*
X117908606Y-96779993D01*
X117969693Y-96552014D01*
X118000500Y-96318011D01*
X118000500Y-96081989D01*
X117969693Y-95847986D01*
X117908606Y-95620007D01*
X117818284Y-95401951D01*
X117818282Y-95401948D01*
X117818280Y-95401943D01*
X117776118Y-95328918D01*
X117700273Y-95197550D01*
X117556592Y-95010301D01*
X117556587Y-95010295D01*
X117389704Y-94843412D01*
X117389697Y-94843406D01*
X117202454Y-94699730D01*
X117202453Y-94699729D01*
X117202450Y-94699727D01*
X117120957Y-94652677D01*
X116998056Y-94581719D01*
X116998045Y-94581714D01*
X116779993Y-94491394D01*
X116552010Y-94430306D01*
X116318020Y-94399501D01*
X116318017Y-94399500D01*
X116318011Y-94399500D01*
X116081989Y-94399500D01*
X116081983Y-94399500D01*
X116081979Y-94399501D01*
X115847989Y-94430306D01*
X115620006Y-94491394D01*
X115401954Y-94581714D01*
X115401943Y-94581719D01*
X115197545Y-94699730D01*
X115010302Y-94843406D01*
X115010295Y-94843412D01*
X114843412Y-95010295D01*
X114843406Y-95010302D01*
X114699730Y-95197545D01*
X114581719Y-95401943D01*
X114581714Y-95401954D01*
X114491394Y-95620006D01*
X114430306Y-95847989D01*
X114399501Y-96081979D01*
X114399500Y-96081995D01*
X90715245Y-96081995D01*
X90715245Y-88187141D01*
X95600000Y-88187141D01*
X98919296Y-88187141D01*
X98986335Y-88206826D01*
X99032090Y-88259630D01*
X99042034Y-88328788D01*
X99013009Y-88392344D01*
X98982453Y-88417852D01*
X98974881Y-88422333D01*
X98944505Y-88434916D01*
X98876638Y-88480263D01*
X98873828Y-88482140D01*
X98873812Y-88482150D01*
X98821586Y-88517046D01*
X98821581Y-88517050D01*
X97742813Y-89595818D01*
X97681490Y-89629303D01*
X97630941Y-89629754D01*
X97478845Y-89599500D01*
X97478842Y-89599500D01*
X97321158Y-89599500D01*
X97321155Y-89599500D01*
X97166510Y-89630261D01*
X97166498Y-89630264D01*
X97020827Y-89690602D01*
X97020814Y-89690609D01*
X96889711Y-89778210D01*
X96889707Y-89778213D01*
X96778213Y-89889707D01*
X96778210Y-89889711D01*
X96690609Y-90020814D01*
X96690602Y-90020827D01*
X96630264Y-90166498D01*
X96630261Y-90166510D01*
X96599500Y-90321153D01*
X96599500Y-90478846D01*
X96630261Y-90633489D01*
X96630264Y-90633501D01*
X96690602Y-90779172D01*
X96690609Y-90779185D01*
X96778210Y-90910288D01*
X96778213Y-90910292D01*
X96889707Y-91021786D01*
X96889711Y-91021789D01*
X97020814Y-91109390D01*
X97020827Y-91109397D01*
X97155272Y-91165085D01*
X97166503Y-91169737D01*
X97321153Y-91200499D01*
X97321156Y-91200500D01*
X97321158Y-91200500D01*
X97478844Y-91200500D01*
X97478845Y-91200499D01*
X97555152Y-91185320D01*
X97633488Y-91169739D01*
X97633489Y-91169738D01*
X97633497Y-91169737D01*
X97657155Y-91159937D01*
X97704604Y-91150500D01*
X98073920Y-91150500D01*
X98171462Y-91131096D01*
X98218913Y-91121658D01*
X98355495Y-91065084D01*
X98437502Y-91010289D01*
X98478416Y-90982952D01*
X99574548Y-89886818D01*
X99635871Y-89853334D01*
X99662229Y-89850500D01*
X100278602Y-89850500D01*
X100345641Y-89870185D01*
X100391396Y-89922989D01*
X100401340Y-89992147D01*
X100372315Y-90055703D01*
X100323275Y-90088679D01*
X100323757Y-90089841D01*
X100320008Y-90091393D01*
X100320007Y-90091394D01*
X100260060Y-90116224D01*
X100101954Y-90181714D01*
X100101943Y-90181719D01*
X99897545Y-90299730D01*
X99710302Y-90443406D01*
X99710295Y-90443412D01*
X99543412Y-90610295D01*
X99543406Y-90610302D01*
X99399730Y-90797545D01*
X99281719Y-91001943D01*
X99281714Y-91001954D01*
X99191394Y-91220006D01*
X99130306Y-91447989D01*
X99099501Y-91681979D01*
X99099500Y-91681995D01*
X99099500Y-91918004D01*
X99099501Y-91918020D01*
X99130306Y-92152010D01*
X99191394Y-92379993D01*
X99281714Y-92598045D01*
X99281719Y-92598056D01*
X99350972Y-92718004D01*
X99399727Y-92802450D01*
X99399729Y-92802453D01*
X99399730Y-92802454D01*
X99543406Y-92989697D01*
X99543412Y-92989704D01*
X99710295Y-93156587D01*
X99710301Y-93156592D01*
X99897550Y-93300273D01*
X100028918Y-93376118D01*
X100101943Y-93418280D01*
X100101948Y-93418282D01*
X100101951Y-93418284D01*
X100320007Y-93508606D01*
X100547986Y-93569693D01*
X100781989Y-93600500D01*
X100781996Y-93600500D01*
X101018004Y-93600500D01*
X101018011Y-93600500D01*
X101252014Y-93569693D01*
X101479993Y-93508606D01*
X101698049Y-93418284D01*
X101902450Y-93300273D01*
X102089699Y-93156592D01*
X102256592Y-92989699D01*
X102400273Y-92802450D01*
X102518284Y-92598049D01*
X102591557Y-92421153D01*
X111699500Y-92421153D01*
X111699500Y-92578846D01*
X111730261Y-92733489D01*
X111730264Y-92733501D01*
X111790602Y-92879172D01*
X111790609Y-92879185D01*
X111878210Y-93010288D01*
X111878213Y-93010292D01*
X111989707Y-93121786D01*
X111989711Y-93121789D01*
X112120814Y-93209390D01*
X112120827Y-93209397D01*
X112208230Y-93245599D01*
X112266503Y-93269737D01*
X112333580Y-93283079D01*
X112395488Y-93315461D01*
X112397068Y-93317014D01*
X112585325Y-93505272D01*
X112585332Y-93505278D01*
X112670301Y-93562052D01*
X112670302Y-93562052D01*
X112691873Y-93576465D01*
X112810256Y-93625501D01*
X112810260Y-93625501D01*
X112810261Y-93625502D01*
X112935928Y-93650500D01*
X112935931Y-93650500D01*
X122814071Y-93650500D01*
X122898615Y-93633682D01*
X122939744Y-93625501D01*
X123058127Y-93576465D01*
X123079698Y-93562052D01*
X123079699Y-93562052D01*
X123143282Y-93519567D01*
X123164669Y-93505277D01*
X125755277Y-90914669D01*
X125826465Y-90808127D01*
X125875501Y-90689744D01*
X125877871Y-90677829D01*
X125886689Y-90633501D01*
X125900500Y-90564071D01*
X125900500Y-89754935D01*
X125920185Y-89687896D01*
X125921366Y-89686090D01*
X125959394Y-89629179D01*
X126019737Y-89483497D01*
X126050500Y-89328842D01*
X126050500Y-89171158D01*
X126050500Y-89171155D01*
X126050499Y-89171153D01*
X126019738Y-89016510D01*
X126019737Y-89016503D01*
X126019732Y-89016492D01*
X126017969Y-89010676D01*
X126020396Y-89009939D01*
X126014110Y-88951488D01*
X126045383Y-88889008D01*
X126105470Y-88853353D01*
X126136141Y-88849500D01*
X131683218Y-88849500D01*
X131750257Y-88869185D01*
X131770899Y-88885819D01*
X136262215Y-93377137D01*
X136262219Y-93377140D01*
X136426079Y-93486628D01*
X136426088Y-93486633D01*
X136517125Y-93524342D01*
X136608165Y-93562052D01*
X136769389Y-93594121D01*
X136801457Y-93600499D01*
X136801458Y-93600500D01*
X136801459Y-93600500D01*
X136801460Y-93600500D01*
X136998541Y-93600500D01*
X139337081Y-93600500D01*
X139404120Y-93620185D01*
X139435457Y-93649014D01*
X139543406Y-93789697D01*
X139543412Y-93789704D01*
X139710295Y-93956587D01*
X139710301Y-93956592D01*
X139897550Y-94100273D01*
X140028918Y-94176118D01*
X140101943Y-94218280D01*
X140101948Y-94218282D01*
X140101951Y-94218284D01*
X140320007Y-94308606D01*
X140547986Y-94369693D01*
X140781989Y-94400500D01*
X140781996Y-94400500D01*
X141018004Y-94400500D01*
X141018011Y-94400500D01*
X141252014Y-94369693D01*
X141479993Y-94308606D01*
X141698049Y-94218284D01*
X141902450Y-94100273D01*
X142089699Y-93956592D01*
X142256592Y-93789699D01*
X142400273Y-93602450D01*
X142518284Y-93398049D01*
X142608606Y-93179993D01*
X142669693Y-92952014D01*
X142700500Y-92718011D01*
X142700500Y-92481989D01*
X142669693Y-92247986D01*
X142608606Y-92020007D01*
X142518284Y-91801951D01*
X142518282Y-91801948D01*
X142518280Y-91801943D01*
X142449027Y-91681995D01*
X142400273Y-91597550D01*
X142256592Y-91410301D01*
X142256587Y-91410295D01*
X142089704Y-91243412D01*
X142089697Y-91243406D01*
X141902454Y-91099730D01*
X141902453Y-91099729D01*
X141902450Y-91099727D01*
X141820957Y-91052677D01*
X141698056Y-90981719D01*
X141698045Y-90981714D01*
X141479993Y-90891394D01*
X141252014Y-90830307D01*
X141219802Y-90826066D01*
X141194129Y-90822686D01*
X141130233Y-90794419D01*
X141091763Y-90736094D01*
X141090932Y-90666229D01*
X141128005Y-90607006D01*
X141191211Y-90577228D01*
X141194132Y-90576808D01*
X141251913Y-90569201D01*
X141479837Y-90508129D01*
X141697819Y-90417839D01*
X141697828Y-90417834D01*
X141902181Y-90299850D01*
X141983723Y-90237279D01*
X141983723Y-90237276D01*
X141147487Y-89401041D01*
X141207890Y-89376022D01*
X141314351Y-89304888D01*
X141404888Y-89214351D01*
X141476022Y-89107890D01*
X141501041Y-89047488D01*
X142337276Y-89883723D01*
X142337279Y-89883723D01*
X142399850Y-89802181D01*
X142517834Y-89597828D01*
X142517839Y-89597819D01*
X142608129Y-89379837D01*
X142669200Y-89151914D01*
X142699999Y-88917985D01*
X142700000Y-88917971D01*
X142700000Y-88682028D01*
X142699999Y-88682014D01*
X142669200Y-88448085D01*
X142608129Y-88220162D01*
X142517839Y-88002180D01*
X142517834Y-88002171D01*
X142399855Y-87797828D01*
X142399854Y-87797827D01*
X142337277Y-87716275D01*
X141501041Y-88552511D01*
X141476022Y-88492110D01*
X141404888Y-88385649D01*
X141314351Y-88295112D01*
X141207890Y-88223978D01*
X141147488Y-88198958D01*
X141983723Y-87362721D01*
X141902172Y-87300145D01*
X141902171Y-87300144D01*
X141697828Y-87182165D01*
X141697819Y-87182160D01*
X141479836Y-87091870D01*
X141479838Y-87091870D01*
X141251914Y-87030799D01*
X141017985Y-87000000D01*
X140782014Y-87000000D01*
X140548085Y-87030799D01*
X140320162Y-87091870D01*
X140102180Y-87182160D01*
X140102171Y-87182165D01*
X139897828Y-87300144D01*
X139897818Y-87300150D01*
X139816275Y-87362720D01*
X139816275Y-87362721D01*
X140652512Y-88198958D01*
X140592110Y-88223978D01*
X140485649Y-88295112D01*
X140395112Y-88385649D01*
X140323978Y-88492110D01*
X140298958Y-88552511D01*
X139462721Y-87716275D01*
X139462720Y-87716275D01*
X139400150Y-87797818D01*
X139400144Y-87797828D01*
X139282165Y-88002171D01*
X139282160Y-88002180D01*
X139191870Y-88220162D01*
X139130799Y-88448085D01*
X139100000Y-88682014D01*
X139100000Y-88917985D01*
X139130799Y-89151914D01*
X139191870Y-89379837D01*
X139282160Y-89597819D01*
X139282165Y-89597828D01*
X139400144Y-89802171D01*
X139400145Y-89802172D01*
X139462721Y-89883723D01*
X140298958Y-89047487D01*
X140323978Y-89107890D01*
X140395112Y-89214351D01*
X140485649Y-89304888D01*
X140592110Y-89376022D01*
X140652511Y-89401041D01*
X139816275Y-90237277D01*
X139897827Y-90299854D01*
X139897828Y-90299855D01*
X140102171Y-90417834D01*
X140102180Y-90417839D01*
X140320163Y-90508129D01*
X140320161Y-90508129D01*
X140548085Y-90569201D01*
X140605868Y-90576808D01*
X140669764Y-90605074D01*
X140708236Y-90663398D01*
X140709068Y-90733263D01*
X140671996Y-90792487D01*
X140608790Y-90822266D01*
X140605870Y-90822686D01*
X140569460Y-90827479D01*
X140547986Y-90830307D01*
X140396000Y-90871031D01*
X140320006Y-90891394D01*
X140101954Y-90981714D01*
X140101943Y-90981719D01*
X139897545Y-91099730D01*
X139710302Y-91243406D01*
X139710295Y-91243412D01*
X139543412Y-91410295D01*
X139543406Y-91410302D01*
X139435457Y-91550986D01*
X139379029Y-91592189D01*
X139337081Y-91599500D01*
X137365783Y-91599500D01*
X137298744Y-91579815D01*
X137278102Y-91563181D01*
X135881419Y-90166498D01*
X132933208Y-87218288D01*
X132933206Y-87218285D01*
X132933206Y-87218286D01*
X132926139Y-87211219D01*
X132926139Y-87211218D01*
X132786782Y-87071861D01*
X132786781Y-87071860D01*
X132786780Y-87071859D01*
X132622920Y-86962371D01*
X132622907Y-86962364D01*
X132492392Y-86908304D01*
X132492389Y-86908303D01*
X132485081Y-86905276D01*
X132440836Y-86886949D01*
X132344188Y-86867724D01*
X132339989Y-86866888D01*
X132339979Y-86866886D01*
X132247544Y-86848500D01*
X132247541Y-86848500D01*
X125866259Y-86848500D01*
X125839513Y-86840646D01*
X125812023Y-86836010D01*
X125806448Y-86830937D01*
X125799220Y-86828815D01*
X125780968Y-86807751D01*
X125760346Y-86788986D01*
X125758398Y-86781705D01*
X125753465Y-86776011D01*
X125749497Y-86748417D01*
X125742296Y-86721488D01*
X125744278Y-86712118D01*
X125743521Y-86706853D01*
X125748166Y-86686685D01*
X125749733Y-86681791D01*
X125769737Y-86633497D01*
X125777181Y-86596070D01*
X125779331Y-86589358D01*
X125795131Y-86566038D01*
X125808191Y-86541071D01*
X125809743Y-86539492D01*
X126328421Y-86020814D01*
X126885520Y-85463716D01*
X126964577Y-85326784D01*
X127005501Y-85174057D01*
X127005501Y-85015942D01*
X127005501Y-85008347D01*
X127005500Y-85008329D01*
X127005500Y-80054765D01*
X127025185Y-79987726D01*
X127026398Y-79985874D01*
X127114390Y-79854185D01*
X127114390Y-79854184D01*
X127114394Y-79854179D01*
X127117574Y-79846503D01*
X127174735Y-79708501D01*
X127174737Y-79708497D01*
X127205500Y-79553842D01*
X127205500Y-79396158D01*
X127205500Y-79396155D01*
X127205499Y-79396153D01*
X127200417Y-79370606D01*
X127174737Y-79241503D01*
X127174735Y-79241498D01*
X127114397Y-79095827D01*
X127114390Y-79095814D01*
X127026789Y-78964711D01*
X127026786Y-78964707D01*
X126915292Y-78853213D01*
X126915288Y-78853210D01*
X126784185Y-78765609D01*
X126784172Y-78765602D01*
X126638501Y-78705264D01*
X126638489Y-78705261D01*
X126483845Y-78674500D01*
X126483842Y-78674500D01*
X126326158Y-78674500D01*
X126326155Y-78674500D01*
X126171510Y-78705261D01*
X126171498Y-78705264D01*
X126025827Y-78765602D01*
X126025814Y-78765609D01*
X125894711Y-78853210D01*
X125894707Y-78853213D01*
X125783213Y-78964707D01*
X125783210Y-78964711D01*
X125695609Y-79095814D01*
X125695602Y-79095827D01*
X125635264Y-79241498D01*
X125635261Y-79241510D01*
X125604500Y-79396153D01*
X125604500Y-79553846D01*
X125635261Y-79708489D01*
X125635264Y-79708501D01*
X125695602Y-79854172D01*
X125695609Y-79854185D01*
X125783602Y-79985874D01*
X125804480Y-80052551D01*
X125804500Y-80054765D01*
X125804500Y-84794902D01*
X125784815Y-84861941D01*
X125768181Y-84882583D01*
X125087584Y-85563181D01*
X125026261Y-85596666D01*
X124999903Y-85599500D01*
X124921155Y-85599500D01*
X124766510Y-85630261D01*
X124766498Y-85630264D01*
X124620827Y-85690602D01*
X124620814Y-85690609D01*
X124489711Y-85778210D01*
X124489707Y-85778213D01*
X124378213Y-85889707D01*
X124378210Y-85889711D01*
X124290609Y-86020814D01*
X124290602Y-86020827D01*
X124230264Y-86166498D01*
X124230261Y-86166510D01*
X124199500Y-86321153D01*
X124199500Y-86478846D01*
X124230261Y-86633489D01*
X124230264Y-86633501D01*
X124248302Y-86677048D01*
X124255771Y-86746517D01*
X124224496Y-86808996D01*
X124164407Y-86844648D01*
X124133741Y-86848500D01*
X121214782Y-86848500D01*
X121147743Y-86828815D01*
X121127101Y-86812181D01*
X115037784Y-80722863D01*
X115037780Y-80722860D01*
X114873920Y-80613372D01*
X114873910Y-80613367D01*
X114691836Y-80537949D01*
X114691828Y-80537947D01*
X114498543Y-80499500D01*
X114498540Y-80499500D01*
X114301460Y-80499500D01*
X114301457Y-80499500D01*
X114108171Y-80537947D01*
X114108163Y-80537949D01*
X113926089Y-80613367D01*
X113926079Y-80613372D01*
X113762219Y-80722860D01*
X113762215Y-80722863D01*
X113622863Y-80862215D01*
X113622860Y-80862219D01*
X113513372Y-81026079D01*
X113513367Y-81026089D01*
X113437949Y-81208163D01*
X113437947Y-81208171D01*
X113399500Y-81401455D01*
X113399500Y-81598544D01*
X113437947Y-81791828D01*
X113437949Y-81791836D01*
X113513367Y-81973910D01*
X113513372Y-81973920D01*
X113622860Y-82137780D01*
X113622863Y-82137784D01*
X119968735Y-88483655D01*
X119968764Y-88483686D01*
X120111214Y-88626136D01*
X120111218Y-88626139D01*
X120275079Y-88735628D01*
X120275092Y-88735635D01*
X120403833Y-88788961D01*
X120430487Y-88800001D01*
X120457164Y-88811051D01*
X120553812Y-88830275D01*
X120602135Y-88839887D01*
X120650458Y-88849500D01*
X120650459Y-88849500D01*
X120650460Y-88849500D01*
X120847540Y-88849500D01*
X124363859Y-88849500D01*
X124430898Y-88869185D01*
X124476653Y-88921989D01*
X124486597Y-88991147D01*
X124481299Y-89010454D01*
X124482031Y-89010676D01*
X124480261Y-89016510D01*
X124449500Y-89171153D01*
X124449500Y-89328846D01*
X124480261Y-89483489D01*
X124480264Y-89483501D01*
X124540602Y-89629172D01*
X124540606Y-89629179D01*
X124578602Y-89686044D01*
X124599480Y-89752721D01*
X124599500Y-89754935D01*
X124599500Y-90179192D01*
X124579815Y-90246231D01*
X124563181Y-90266873D01*
X122516873Y-92313181D01*
X122455550Y-92346666D01*
X122429192Y-92349500D01*
X113386878Y-92349500D01*
X113319839Y-92329815D01*
X113274084Y-92277011D01*
X113272215Y-92272069D01*
X113272068Y-92272131D01*
X113209397Y-92120827D01*
X113209390Y-92120814D01*
X113121789Y-91989711D01*
X113121786Y-91989707D01*
X113010292Y-91878213D01*
X113010288Y-91878210D01*
X112879185Y-91790609D01*
X112879172Y-91790602D01*
X112733501Y-91730264D01*
X112733489Y-91730261D01*
X112578845Y-91699500D01*
X112578842Y-91699500D01*
X112421158Y-91699500D01*
X112421155Y-91699500D01*
X112266510Y-91730261D01*
X112266498Y-91730264D01*
X112120827Y-91790602D01*
X112120814Y-91790609D01*
X111989711Y-91878210D01*
X111989707Y-91878213D01*
X111878213Y-91989707D01*
X111878210Y-91989711D01*
X111790609Y-92120814D01*
X111790602Y-92120827D01*
X111730264Y-92266498D01*
X111730261Y-92266510D01*
X111699500Y-92421153D01*
X102591557Y-92421153D01*
X102608606Y-92379993D01*
X102669693Y-92152014D01*
X102700500Y-91918011D01*
X102700500Y-91681989D01*
X102669693Y-91447986D01*
X102608606Y-91220007D01*
X102518284Y-91001951D01*
X102518282Y-91001948D01*
X102518280Y-91001943D01*
X102467892Y-90914669D01*
X102400273Y-90797550D01*
X102274385Y-90633489D01*
X102256593Y-90610302D01*
X102256587Y-90610295D01*
X102089704Y-90443412D01*
X102089697Y-90443406D01*
X101902454Y-90299730D01*
X101902453Y-90299729D01*
X101902450Y-90299727D01*
X101794287Y-90237279D01*
X101698056Y-90181719D01*
X101698045Y-90181714D01*
X101551019Y-90120814D01*
X101479993Y-90091394D01*
X101479990Y-90091393D01*
X101476243Y-90089841D01*
X101476771Y-90088565D01*
X101424387Y-90051733D01*
X101398032Y-89987024D01*
X101410845Y-89918340D01*
X101458757Y-89867485D01*
X101521398Y-89850500D01*
X103937770Y-89850500D01*
X104004809Y-89870185D01*
X104025451Y-89886819D01*
X105221584Y-91082952D01*
X105222388Y-91083489D01*
X105279508Y-91121655D01*
X105279510Y-91121656D01*
X105279513Y-91121658D01*
X105344505Y-91165084D01*
X105344506Y-91165084D01*
X105344507Y-91165085D01*
X105430007Y-91200500D01*
X105481087Y-91221658D01*
X105481091Y-91221658D01*
X105481092Y-91221659D01*
X105626079Y-91250500D01*
X105626082Y-91250500D01*
X105626083Y-91250500D01*
X105773917Y-91250500D01*
X107107896Y-91250500D01*
X107155344Y-91259937D01*
X107179003Y-91269737D01*
X107179008Y-91269738D01*
X107179011Y-91269739D01*
X107333653Y-91300499D01*
X107333656Y-91300500D01*
X107333658Y-91300500D01*
X107491344Y-91300500D01*
X107491345Y-91300499D01*
X107645997Y-91269737D01*
X107791679Y-91209394D01*
X107922789Y-91121789D01*
X108034289Y-91010289D01*
X108121894Y-90879179D01*
X108182237Y-90733497D01*
X108213000Y-90578842D01*
X108213000Y-90421158D01*
X108213000Y-90421155D01*
X108212999Y-90421153D01*
X108204776Y-90379815D01*
X108182237Y-90266503D01*
X108147119Y-90181719D01*
X108121897Y-90120827D01*
X108121890Y-90120814D01*
X108034289Y-89989711D01*
X108034286Y-89989707D01*
X107922792Y-89878213D01*
X107922788Y-89878210D01*
X107791685Y-89790609D01*
X107791672Y-89790602D01*
X107646001Y-89730264D01*
X107645989Y-89730261D01*
X107491345Y-89699500D01*
X107491342Y-89699500D01*
X107333658Y-89699500D01*
X107333655Y-89699500D01*
X107179011Y-89730260D01*
X107179006Y-89730262D01*
X107179004Y-89730262D01*
X107179003Y-89730263D01*
X107155344Y-89740062D01*
X107107896Y-89749500D01*
X106062230Y-89749500D01*
X105995191Y-89729815D01*
X105974549Y-89713181D01*
X104778421Y-88517052D01*
X104778414Y-88517046D01*
X104704729Y-88467812D01*
X104704729Y-88467813D01*
X104655495Y-88434916D01*
X104655493Y-88434915D01*
X104633251Y-88425702D01*
X104578848Y-88381861D01*
X104556783Y-88315567D01*
X104574062Y-88247867D01*
X104625200Y-88200257D01*
X104680704Y-88187141D01*
X108200000Y-88187141D01*
X108200000Y-80087141D01*
X95600000Y-80087141D01*
X95600000Y-88187141D01*
X90715245Y-88187141D01*
X90715245Y-80001153D01*
X109364500Y-80001153D01*
X109364500Y-80158846D01*
X109395261Y-80313489D01*
X109395264Y-80313501D01*
X109455602Y-80459172D01*
X109455609Y-80459185D01*
X109543210Y-80590288D01*
X109543213Y-80590292D01*
X109654707Y-80701786D01*
X109654711Y-80701789D01*
X109785814Y-80789390D01*
X109785827Y-80789397D01*
X109931498Y-80849735D01*
X109931503Y-80849737D01*
X109994234Y-80862215D01*
X110086849Y-80880638D01*
X110148760Y-80913023D01*
X110150339Y-80914574D01*
X111863181Y-82627416D01*
X111896666Y-82688739D01*
X111899500Y-82715097D01*
X111899500Y-87913330D01*
X111899499Y-87913348D01*
X111899499Y-88079054D01*
X111899498Y-88079054D01*
X111940423Y-88231785D01*
X111969358Y-88281900D01*
X111969359Y-88281904D01*
X111969360Y-88281904D01*
X112011697Y-88355236D01*
X112019479Y-88368714D01*
X112019481Y-88368717D01*
X112138349Y-88487585D01*
X112138354Y-88487589D01*
X115131284Y-91480520D01*
X115131286Y-91480521D01*
X115131290Y-91480524D01*
X115253336Y-91550986D01*
X115268216Y-91559577D01*
X115420943Y-91600501D01*
X115420945Y-91600501D01*
X115586654Y-91600501D01*
X115586670Y-91600500D01*
X119195396Y-91600500D01*
X119242844Y-91609937D01*
X119266503Y-91619737D01*
X119266508Y-91619738D01*
X119266511Y-91619739D01*
X119421153Y-91650499D01*
X119421156Y-91650500D01*
X119421158Y-91650500D01*
X119578844Y-91650500D01*
X119578845Y-91650499D01*
X119733497Y-91619737D01*
X119879179Y-91559394D01*
X120010289Y-91471789D01*
X120121789Y-91360289D01*
X120209394Y-91229179D01*
X120269737Y-91083497D01*
X120300500Y-90928842D01*
X120300500Y-90771158D01*
X120300500Y-90771155D01*
X120300499Y-90771153D01*
X120293525Y-90736094D01*
X120269737Y-90616503D01*
X120269735Y-90616498D01*
X120209397Y-90470827D01*
X120209390Y-90470814D01*
X120121789Y-90339711D01*
X120121786Y-90339707D01*
X120010292Y-90228213D01*
X120010288Y-90228210D01*
X119879185Y-90140609D01*
X119879172Y-90140602D01*
X119733501Y-90080264D01*
X119733489Y-90080261D01*
X119578845Y-90049500D01*
X119578842Y-90049500D01*
X119421158Y-90049500D01*
X119421155Y-90049500D01*
X119266510Y-90080261D01*
X119266498Y-90080264D01*
X119120827Y-90140602D01*
X119120814Y-90140609D01*
X118989711Y-90228210D01*
X118989707Y-90228213D01*
X118878211Y-90339709D01*
X118875086Y-90344388D01*
X118821475Y-90389194D01*
X118771982Y-90399500D01*
X115800098Y-90399500D01*
X115733059Y-90379815D01*
X115712417Y-90363181D01*
X113136819Y-87787583D01*
X113103334Y-87726260D01*
X113100500Y-87699902D01*
X113100500Y-82504060D01*
X113100501Y-82504047D01*
X113100501Y-82335944D01*
X113059576Y-82183214D01*
X113059573Y-82183209D01*
X112980524Y-82046290D01*
X112980518Y-82046282D01*
X110999573Y-80065337D01*
X110966088Y-80004014D01*
X110965637Y-80001847D01*
X110936265Y-79854185D01*
X110934737Y-79846503D01*
X110934735Y-79846498D01*
X110874397Y-79700827D01*
X110874390Y-79700814D01*
X110786789Y-79569711D01*
X110786786Y-79569707D01*
X110675292Y-79458213D01*
X110675288Y-79458210D01*
X110544185Y-79370609D01*
X110544172Y-79370602D01*
X110398501Y-79310264D01*
X110398489Y-79310261D01*
X110243845Y-79279500D01*
X110243842Y-79279500D01*
X110086158Y-79279500D01*
X110086155Y-79279500D01*
X109931510Y-79310261D01*
X109931498Y-79310264D01*
X109785827Y-79370602D01*
X109785814Y-79370609D01*
X109654711Y-79458210D01*
X109654707Y-79458213D01*
X109543213Y-79569707D01*
X109543210Y-79569711D01*
X109455609Y-79700814D01*
X109455602Y-79700827D01*
X109395264Y-79846498D01*
X109395261Y-79846510D01*
X109364500Y-80001153D01*
X90715245Y-80001153D01*
X90715245Y-73421153D01*
X120699500Y-73421153D01*
X120699500Y-73578846D01*
X120730261Y-73733489D01*
X120730264Y-73733501D01*
X120790602Y-73879172D01*
X120790609Y-73879185D01*
X120878210Y-74010288D01*
X120878213Y-74010292D01*
X120989707Y-74121786D01*
X120989711Y-74121789D01*
X121120814Y-74209390D01*
X121120827Y-74209397D01*
X121259067Y-74266657D01*
X121266503Y-74269737D01*
X121331147Y-74282595D01*
X121421849Y-74300638D01*
X121483760Y-74333023D01*
X121485339Y-74334574D01*
X123228181Y-76077416D01*
X123261666Y-76138739D01*
X123264500Y-76165097D01*
X123264500Y-78895234D01*
X123244815Y-78962273D01*
X123243602Y-78964125D01*
X123155609Y-79095814D01*
X123155602Y-79095827D01*
X123095264Y-79241498D01*
X123095261Y-79241510D01*
X123064500Y-79396153D01*
X123064500Y-79553846D01*
X123095261Y-79708489D01*
X123095264Y-79708501D01*
X123155602Y-79854172D01*
X123155609Y-79854185D01*
X123243210Y-79985288D01*
X123243213Y-79985292D01*
X123354707Y-80096786D01*
X123354711Y-80096789D01*
X123485814Y-80184390D01*
X123485827Y-80184397D01*
X123631498Y-80244735D01*
X123631503Y-80244737D01*
X123786153Y-80275499D01*
X123786156Y-80275500D01*
X123786158Y-80275500D01*
X123943844Y-80275500D01*
X123943845Y-80275499D01*
X124098497Y-80244737D01*
X124244179Y-80184394D01*
X124375289Y-80096789D01*
X124486789Y-79985289D01*
X124574394Y-79854179D01*
X124577574Y-79846503D01*
X124634735Y-79708501D01*
X124634737Y-79708497D01*
X124665500Y-79553842D01*
X124665500Y-79396158D01*
X124665500Y-79396155D01*
X124665499Y-79396153D01*
X124660417Y-79370606D01*
X124634737Y-79241503D01*
X124634735Y-79241498D01*
X124574397Y-79095827D01*
X124574390Y-79095814D01*
X124486398Y-78964125D01*
X124465520Y-78897447D01*
X124465500Y-78895234D01*
X124465500Y-75785945D01*
X124465500Y-75785943D01*
X124424577Y-75633215D01*
X124395639Y-75583095D01*
X124345520Y-75496284D01*
X124233716Y-75384480D01*
X124233715Y-75384479D01*
X124229385Y-75380149D01*
X124229374Y-75380139D01*
X122334574Y-73485339D01*
X122301089Y-73424016D01*
X122300638Y-73421849D01*
X122273760Y-73286729D01*
X122269737Y-73266503D01*
X122223684Y-73155320D01*
X122209397Y-73120827D01*
X122209390Y-73120814D01*
X122121789Y-72989711D01*
X122121786Y-72989707D01*
X122010292Y-72878213D01*
X122010288Y-72878210D01*
X121879185Y-72790609D01*
X121879172Y-72790602D01*
X121733501Y-72730264D01*
X121733489Y-72730261D01*
X121578845Y-72699500D01*
X121578842Y-72699500D01*
X121421158Y-72699500D01*
X121421155Y-72699500D01*
X121266510Y-72730261D01*
X121266498Y-72730264D01*
X121120827Y-72790602D01*
X121120814Y-72790609D01*
X120989711Y-72878210D01*
X120989707Y-72878213D01*
X120878213Y-72989707D01*
X120878210Y-72989711D01*
X120790609Y-73120814D01*
X120790602Y-73120827D01*
X120730264Y-73266498D01*
X120730261Y-73266510D01*
X120699500Y-73421153D01*
X90715245Y-73421153D01*
X90715245Y-71843713D01*
X132479500Y-71843713D01*
X132479500Y-72056286D01*
X132512753Y-72266239D01*
X132578444Y-72468414D01*
X132674951Y-72657820D01*
X132799890Y-72829786D01*
X132950209Y-72980105D01*
X132950214Y-72980109D01*
X133115218Y-73099991D01*
X133157884Y-73155320D01*
X133163863Y-73224934D01*
X133131258Y-73286729D01*
X133115218Y-73300627D01*
X132950540Y-73420272D01*
X132950535Y-73420276D01*
X132800276Y-73570535D01*
X132800272Y-73570540D01*
X132675379Y-73742442D01*
X132578904Y-73931782D01*
X132513242Y-74133870D01*
X132513242Y-74133873D01*
X132502769Y-74200000D01*
X133550854Y-74200000D01*
X133512370Y-74266657D01*
X133480000Y-74387465D01*
X133480000Y-74512535D01*
X133512370Y-74633343D01*
X133550854Y-74700000D01*
X132502769Y-74700000D01*
X132513242Y-74766126D01*
X132513242Y-74766129D01*
X132578904Y-74968217D01*
X132675379Y-75157557D01*
X132800272Y-75329459D01*
X132800276Y-75329464D01*
X132950535Y-75479723D01*
X132950540Y-75479727D01*
X133115218Y-75599372D01*
X133157884Y-75654701D01*
X133163863Y-75724315D01*
X133131258Y-75786110D01*
X133115218Y-75800008D01*
X132950214Y-75919890D01*
X132950209Y-75919894D01*
X132799890Y-76070213D01*
X132674951Y-76242179D01*
X132578444Y-76431585D01*
X132512753Y-76633760D01*
X132479500Y-76843713D01*
X132479500Y-77056286D01*
X132512753Y-77266239D01*
X132578444Y-77468414D01*
X132674951Y-77657820D01*
X132799890Y-77829786D01*
X132938705Y-77968601D01*
X132972190Y-78029924D01*
X132967206Y-78099616D01*
X132925334Y-78155549D01*
X132916121Y-78161821D01*
X132761342Y-78257289D01*
X132637289Y-78381342D01*
X132545187Y-78530663D01*
X132545186Y-78530666D01*
X132490001Y-78697203D01*
X132490001Y-78697204D01*
X132490000Y-78697204D01*
X132479500Y-78799983D01*
X132479500Y-80100001D01*
X132479501Y-80100018D01*
X132490000Y-80202796D01*
X132490001Y-80202799D01*
X132514092Y-80275499D01*
X132545186Y-80369334D01*
X132637288Y-80518656D01*
X132761344Y-80642712D01*
X132910666Y-80734814D01*
X133077203Y-80789999D01*
X133179991Y-80800500D01*
X134730008Y-80800499D01*
X134832797Y-80789999D01*
X134999334Y-80734814D01*
X135148656Y-80642712D01*
X135272712Y-80518656D01*
X135364814Y-80369334D01*
X135419999Y-80202797D01*
X135430500Y-80100009D01*
X135430499Y-78799992D01*
X135426986Y-78765606D01*
X135419999Y-78697203D01*
X135419998Y-78697200D01*
X135412476Y-78674500D01*
X135364814Y-78530666D01*
X135272712Y-78381344D01*
X135148656Y-78257288D01*
X134999334Y-78165186D01*
X134999333Y-78165185D01*
X134993878Y-78161821D01*
X134947154Y-78109873D01*
X134935931Y-78040910D01*
X134963775Y-77976828D01*
X134971272Y-77968623D01*
X135110104Y-77829792D01*
X135235051Y-77657816D01*
X135331557Y-77468412D01*
X135397246Y-77266243D01*
X135430500Y-77056287D01*
X135430500Y-76843713D01*
X135397246Y-76633757D01*
X135331557Y-76431588D01*
X135235051Y-76242184D01*
X135235049Y-76242181D01*
X135235048Y-76242179D01*
X135110109Y-76070213D01*
X134959790Y-75919894D01*
X134959785Y-75919890D01*
X134794781Y-75800008D01*
X134752115Y-75744678D01*
X134746136Y-75675065D01*
X134778741Y-75613270D01*
X134794781Y-75599371D01*
X134959466Y-75479721D01*
X135109723Y-75329464D01*
X135109727Y-75329459D01*
X135234620Y-75157557D01*
X135331095Y-74968217D01*
X135396757Y-74766129D01*
X135396757Y-74766126D01*
X135407231Y-74700000D01*
X134359146Y-74700000D01*
X134397630Y-74633343D01*
X134430000Y-74512535D01*
X134430000Y-74387465D01*
X134397630Y-74266657D01*
X134359146Y-74200000D01*
X135407231Y-74200000D01*
X135396757Y-74133873D01*
X135396757Y-74133870D01*
X135331095Y-73931782D01*
X135234620Y-73742442D01*
X135109727Y-73570540D01*
X135109723Y-73570535D01*
X134959464Y-73420276D01*
X134959459Y-73420272D01*
X134794781Y-73300627D01*
X134752115Y-73245297D01*
X134746136Y-73175684D01*
X134778741Y-73113889D01*
X134794776Y-73099994D01*
X134959792Y-72980104D01*
X135110104Y-72829792D01*
X135110106Y-72829788D01*
X135110109Y-72829786D01*
X135235048Y-72657820D01*
X135235047Y-72657820D01*
X135235051Y-72657816D01*
X135331557Y-72468412D01*
X135397246Y-72266243D01*
X135430500Y-72056287D01*
X135430500Y-71843713D01*
X135397246Y-71633757D01*
X135331557Y-71431588D01*
X135235051Y-71242184D01*
X135235049Y-71242181D01*
X135235048Y-71242179D01*
X135110109Y-71070213D01*
X134959786Y-70919890D01*
X134787820Y-70794951D01*
X134598414Y-70698444D01*
X134598413Y-70698443D01*
X134598412Y-70698443D01*
X134396243Y-70632754D01*
X134396241Y-70632753D01*
X134396240Y-70632753D01*
X134234957Y-70607208D01*
X134186287Y-70599500D01*
X133723713Y-70599500D01*
X133675042Y-70607208D01*
X133513760Y-70632753D01*
X133311585Y-70698444D01*
X133122179Y-70794951D01*
X132950213Y-70919890D01*
X132799890Y-71070213D01*
X132674951Y-71242179D01*
X132578444Y-71431585D01*
X132512753Y-71633760D01*
X132479500Y-71843713D01*
X90715245Y-71843713D01*
X90715245Y-67661753D01*
X90721829Y-67639329D01*
X90723972Y-67616058D01*
X90731489Y-67606432D01*
X90734930Y-67594714D01*
X90752590Y-67579411D01*
X90766976Y-67560990D01*
X90784156Y-67552058D01*
X90787734Y-67548959D01*
X90798276Y-67544716D01*
X90875670Y-67517635D01*
X90902733Y-67511459D01*
X90965419Y-67504396D01*
X90993079Y-67501280D01*
X91006962Y-67500500D01*
X91065892Y-67500500D01*
X142434108Y-67500500D01*
X142493038Y-67500500D01*
X142506922Y-67501280D01*
G37*
%TD.AperFunction*%
%TD*%
M02*
