M48
; DRILL file {KiCad 9.0.5} date 2025-11-20T08:48:30+0100
; FORMAT={-:-/ absolute / metric / decimal}
; #@! TF.CreationDate,2025-11-20T08:48:30+01:00
; #@! TF.GenerationSoftware,Kicad,Pcbnew,9.0.5
; #@! TF.FileFunction,Plated,1,2,PTH
FMAT,2
METRIC
; #@! TA.AperFunction,Plated,PTH,ViaDrill
T1C0.300
; #@! TA.AperFunction,Plated,PTH,ViaDrill
T2C0.350
; #@! TA.AperFunction,Plated,PTH,ComponentDrill
T3C0.950
; #@! TA.AperFunction,Plated,PTH,ComponentDrill
T4C1.300
%
G90
G05
T1
X92.0Y-98.3
X97.4Y-90.4
X98.0Y-92.1
X98.8Y-79.3
X103.6Y-94.3
X104.0Y-79.3
X106.5Y-70.5
X106.5Y-72.6
X107.412Y-90.5
X107.5Y-78.0
X110.165Y-80.08
X110.7Y-98.3
X111.5Y-89.7
X112.5Y-92.5
X113.1Y-95.4
X114.0Y-74.5
X116.0Y-90.0
X117.5Y-77.0
X119.5Y-90.85
X120.0Y-89.0
X121.5Y-73.5
X123.865Y-79.475
X125.0Y-86.4
X125.25Y-89.25
X126.0Y-93.0
X126.405Y-79.475
X126.5Y-89.0
X127.0Y-89.25
X127.25Y-86.75
X129.1Y-89.25
X129.7Y-88.9
X130.6Y-69.0
X130.6Y-69.0
X131.6Y-75.5
X136.9Y-73.1
X136.9Y-75.6
X138.1Y-89.0
X139.8Y-84.9
X142.0Y-84.9
T2
X114.4Y-81.5
T3
X133.955Y-71.95
X133.955Y-74.45
X133.955Y-76.95
X133.955Y-79.45
T4
X100.9Y-91.8
X116.2Y-96.2
X140.9Y-88.8
X140.9Y-92.6
M30
