%TF.GenerationSoftware,KiCad,Pcbnew,9.0.5*%
%TF.CreationDate,2025-11-20T08:48:28+01:00*%
%TF.ProjectId,acw02_zb-v1.1,61637730-325f-47a6-922d-76312e312e6b,rev?*%
%TF.SameCoordinates,Original*%
%TF.FileFunction,Legend,Bot*%
%TF.FilePolarity,Positive*%
%FSLAX46Y46*%
G04 Gerber Fmt 4.6, Leading zero omitted, Abs format (unit mm)*
G04 Created by KiCad (PCBNEW 9.0.5) date 2025-11-20 08:48:28*
%MOMM*%
%LPD*%
G01*
G04 APERTURE LIST*
G04 Aperture macros list*
%AMRoundRect*
0 Rectangle with rounded corners*
0 $1 Rounding radius*
0 $2 $3 $4 $5 $6 $7 $8 $9 X,Y pos of 4 corners*
0 Add a 4 corners polygon primitive as box body*
4,1,4,$2,$3,$4,$5,$6,$7,$8,$9,$2,$3,0*
0 Add four circle primitives for the rounded corners*
1,1,$1+$1,$2,$3*
1,1,$1+$1,$4,$5*
1,1,$1+$1,$6,$7*
1,1,$1+$1,$8,$9*
0 Add four rect primitives between the rounded corners*
20,1,$1+$1,$2,$3,$4,$5,0*
20,1,$1+$1,$4,$5,$6,$7,0*
20,1,$1+$1,$6,$7,$8,$9,0*
20,1,$1+$1,$8,$9,$2,$3,0*%
G04 Aperture macros list end*
%ADD10C,0.150000*%
%ADD11C,0.200000*%
%ADD12C,2.600000*%
%ADD13RoundRect,0.250000X0.725000X-0.600000X0.725000X0.600000X-0.725000X0.600000X-0.725000X-0.600000X0*%
%ADD14O,1.950000X1.700000*%
G04 APERTURE END LIST*
D10*
X141639411Y-85717438D02*
X141734649Y-85669819D01*
X141734649Y-85669819D02*
X141877506Y-85669819D01*
X141877506Y-85669819D02*
X142020363Y-85717438D01*
X142020363Y-85717438D02*
X142115601Y-85812676D01*
X142115601Y-85812676D02*
X142163220Y-85907914D01*
X142163220Y-85907914D02*
X142210839Y-86098390D01*
X142210839Y-86098390D02*
X142210839Y-86241247D01*
X142210839Y-86241247D02*
X142163220Y-86431723D01*
X142163220Y-86431723D02*
X142115601Y-86526961D01*
X142115601Y-86526961D02*
X142020363Y-86622200D01*
X142020363Y-86622200D02*
X141877506Y-86669819D01*
X141877506Y-86669819D02*
X141782268Y-86669819D01*
X141782268Y-86669819D02*
X141639411Y-86622200D01*
X141639411Y-86622200D02*
X141591792Y-86574580D01*
X141591792Y-86574580D02*
X141591792Y-86241247D01*
X141591792Y-86241247D02*
X141782268Y-86241247D01*
X141163220Y-86669819D02*
X141163220Y-85669819D01*
X141163220Y-85669819D02*
X140591792Y-86669819D01*
X140591792Y-86669819D02*
X140591792Y-85669819D01*
X140115601Y-86669819D02*
X140115601Y-85669819D01*
X140115601Y-85669819D02*
X139877506Y-85669819D01*
X139877506Y-85669819D02*
X139734649Y-85717438D01*
X139734649Y-85717438D02*
X139639411Y-85812676D01*
X139639411Y-85812676D02*
X139591792Y-85907914D01*
X139591792Y-85907914D02*
X139544173Y-86098390D01*
X139544173Y-86098390D02*
X139544173Y-86241247D01*
X139544173Y-86241247D02*
X139591792Y-86431723D01*
X139591792Y-86431723D02*
X139639411Y-86526961D01*
X139639411Y-86526961D02*
X139734649Y-86622200D01*
X139734649Y-86622200D02*
X139877506Y-86669819D01*
X139877506Y-86669819D02*
X140115601Y-86669819D01*
X142263220Y-95188866D02*
X141501316Y-95188866D01*
X141882268Y-95569819D02*
X141882268Y-94807914D01*
X140548935Y-94569819D02*
X141025125Y-94569819D01*
X141025125Y-94569819D02*
X141072744Y-95046009D01*
X141072744Y-95046009D02*
X141025125Y-94998390D01*
X141025125Y-94998390D02*
X140929887Y-94950771D01*
X140929887Y-94950771D02*
X140691792Y-94950771D01*
X140691792Y-94950771D02*
X140596554Y-94998390D01*
X140596554Y-94998390D02*
X140548935Y-95046009D01*
X140548935Y-95046009D02*
X140501316Y-95141247D01*
X140501316Y-95141247D02*
X140501316Y-95379342D01*
X140501316Y-95379342D02*
X140548935Y-95474580D01*
X140548935Y-95474580D02*
X140596554Y-95522200D01*
X140596554Y-95522200D02*
X140691792Y-95569819D01*
X140691792Y-95569819D02*
X140929887Y-95569819D01*
X140929887Y-95569819D02*
X141025125Y-95522200D01*
X141025125Y-95522200D02*
X141072744Y-95474580D01*
X140215601Y-94569819D02*
X139882268Y-95569819D01*
X139882268Y-95569819D02*
X139548935Y-94569819D01*
D11*
X134428571Y-96299885D02*
X133857143Y-96299885D01*
X134542857Y-96642742D02*
X134142857Y-95442742D01*
X134142857Y-95442742D02*
X133742857Y-96642742D01*
X132657143Y-96528457D02*
X132714286Y-96585600D01*
X132714286Y-96585600D02*
X132885714Y-96642742D01*
X132885714Y-96642742D02*
X133000000Y-96642742D01*
X133000000Y-96642742D02*
X133171429Y-96585600D01*
X133171429Y-96585600D02*
X133285714Y-96471314D01*
X133285714Y-96471314D02*
X133342857Y-96357028D01*
X133342857Y-96357028D02*
X133400000Y-96128457D01*
X133400000Y-96128457D02*
X133400000Y-95957028D01*
X133400000Y-95957028D02*
X133342857Y-95728457D01*
X133342857Y-95728457D02*
X133285714Y-95614171D01*
X133285714Y-95614171D02*
X133171429Y-95499885D01*
X133171429Y-95499885D02*
X133000000Y-95442742D01*
X133000000Y-95442742D02*
X132885714Y-95442742D01*
X132885714Y-95442742D02*
X132714286Y-95499885D01*
X132714286Y-95499885D02*
X132657143Y-95557028D01*
X132257143Y-95442742D02*
X131971429Y-96642742D01*
X131971429Y-96642742D02*
X131742857Y-95785600D01*
X131742857Y-95785600D02*
X131514286Y-96642742D01*
X131514286Y-96642742D02*
X131228572Y-95442742D01*
X130542857Y-95442742D02*
X130428571Y-95442742D01*
X130428571Y-95442742D02*
X130314285Y-95499885D01*
X130314285Y-95499885D02*
X130257143Y-95557028D01*
X130257143Y-95557028D02*
X130200000Y-95671314D01*
X130200000Y-95671314D02*
X130142857Y-95899885D01*
X130142857Y-95899885D02*
X130142857Y-96185600D01*
X130142857Y-96185600D02*
X130200000Y-96414171D01*
X130200000Y-96414171D02*
X130257143Y-96528457D01*
X130257143Y-96528457D02*
X130314285Y-96585600D01*
X130314285Y-96585600D02*
X130428571Y-96642742D01*
X130428571Y-96642742D02*
X130542857Y-96642742D01*
X130542857Y-96642742D02*
X130657143Y-96585600D01*
X130657143Y-96585600D02*
X130714285Y-96528457D01*
X130714285Y-96528457D02*
X130771428Y-96414171D01*
X130771428Y-96414171D02*
X130828571Y-96185600D01*
X130828571Y-96185600D02*
X130828571Y-95899885D01*
X130828571Y-95899885D02*
X130771428Y-95671314D01*
X130771428Y-95671314D02*
X130714285Y-95557028D01*
X130714285Y-95557028D02*
X130657143Y-95499885D01*
X130657143Y-95499885D02*
X130542857Y-95442742D01*
X129685714Y-95557028D02*
X129628571Y-95499885D01*
X129628571Y-95499885D02*
X129514286Y-95442742D01*
X129514286Y-95442742D02*
X129228571Y-95442742D01*
X129228571Y-95442742D02*
X129114286Y-95499885D01*
X129114286Y-95499885D02*
X129057143Y-95557028D01*
X129057143Y-95557028D02*
X129000000Y-95671314D01*
X129000000Y-95671314D02*
X129000000Y-95785600D01*
X129000000Y-95785600D02*
X129057143Y-95957028D01*
X129057143Y-95957028D02*
X129742857Y-96642742D01*
X129742857Y-96642742D02*
X129000000Y-96642742D01*
X128485714Y-96185600D02*
X127571429Y-96185600D01*
X127114286Y-95442742D02*
X126314286Y-95442742D01*
X126314286Y-95442742D02*
X127114286Y-96642742D01*
X127114286Y-96642742D02*
X126314286Y-96642742D01*
X125457143Y-96014171D02*
X125285715Y-96071314D01*
X125285715Y-96071314D02*
X125228572Y-96128457D01*
X125228572Y-96128457D02*
X125171429Y-96242742D01*
X125171429Y-96242742D02*
X125171429Y-96414171D01*
X125171429Y-96414171D02*
X125228572Y-96528457D01*
X125228572Y-96528457D02*
X125285715Y-96585600D01*
X125285715Y-96585600D02*
X125400000Y-96642742D01*
X125400000Y-96642742D02*
X125857143Y-96642742D01*
X125857143Y-96642742D02*
X125857143Y-95442742D01*
X125857143Y-95442742D02*
X125457143Y-95442742D01*
X125457143Y-95442742D02*
X125342858Y-95499885D01*
X125342858Y-95499885D02*
X125285715Y-95557028D01*
X125285715Y-95557028D02*
X125228572Y-95671314D01*
X125228572Y-95671314D02*
X125228572Y-95785600D01*
X125228572Y-95785600D02*
X125285715Y-95899885D01*
X125285715Y-95899885D02*
X125342858Y-95957028D01*
X125342858Y-95957028D02*
X125457143Y-96014171D01*
X125457143Y-96014171D02*
X125857143Y-96014171D01*
X122942857Y-95842742D02*
X122657143Y-96642742D01*
X122657143Y-96642742D02*
X122371428Y-95842742D01*
X121285714Y-96642742D02*
X121971428Y-96642742D01*
X121628571Y-96642742D02*
X121628571Y-95442742D01*
X121628571Y-95442742D02*
X121742857Y-95614171D01*
X121742857Y-95614171D02*
X121857142Y-95728457D01*
X121857142Y-95728457D02*
X121971428Y-95785600D01*
X120771428Y-96528457D02*
X120714285Y-96585600D01*
X120714285Y-96585600D02*
X120771428Y-96642742D01*
X120771428Y-96642742D02*
X120828571Y-96585600D01*
X120828571Y-96585600D02*
X120771428Y-96528457D01*
X120771428Y-96528457D02*
X120771428Y-96642742D01*
X119571428Y-96642742D02*
X120257142Y-96642742D01*
X119914285Y-96642742D02*
X119914285Y-95442742D01*
X119914285Y-95442742D02*
X120028571Y-95614171D01*
X120028571Y-95614171D02*
X120142856Y-95728457D01*
X120142856Y-95728457D02*
X120257142Y-95785600D01*
X137614285Y-78842742D02*
X136928571Y-78842742D01*
X137271428Y-80042742D02*
X137271428Y-78842742D01*
X136642856Y-78842742D02*
X135842856Y-80042742D01*
X135842856Y-78842742D02*
X136642856Y-80042742D01*
X137096993Y-77542742D02*
X137496993Y-76971314D01*
X137782707Y-77542742D02*
X137782707Y-76342742D01*
X137782707Y-76342742D02*
X137325564Y-76342742D01*
X137325564Y-76342742D02*
X137211279Y-76399885D01*
X137211279Y-76399885D02*
X137154136Y-76457028D01*
X137154136Y-76457028D02*
X137096993Y-76571314D01*
X137096993Y-76571314D02*
X137096993Y-76742742D01*
X137096993Y-76742742D02*
X137154136Y-76857028D01*
X137154136Y-76857028D02*
X137211279Y-76914171D01*
X137211279Y-76914171D02*
X137325564Y-76971314D01*
X137325564Y-76971314D02*
X137782707Y-76971314D01*
X136696993Y-76342742D02*
X135896993Y-77542742D01*
X135896993Y-76342742D02*
X136696993Y-77542742D01*
X138954136Y-71342742D02*
X138554136Y-72542742D01*
X138554136Y-72542742D02*
X138154136Y-71342742D01*
X137068422Y-72428457D02*
X137125565Y-72485600D01*
X137125565Y-72485600D02*
X137296993Y-72542742D01*
X137296993Y-72542742D02*
X137411279Y-72542742D01*
X137411279Y-72542742D02*
X137582708Y-72485600D01*
X137582708Y-72485600D02*
X137696993Y-72371314D01*
X137696993Y-72371314D02*
X137754136Y-72257028D01*
X137754136Y-72257028D02*
X137811279Y-72028457D01*
X137811279Y-72028457D02*
X137811279Y-71857028D01*
X137811279Y-71857028D02*
X137754136Y-71628457D01*
X137754136Y-71628457D02*
X137696993Y-71514171D01*
X137696993Y-71514171D02*
X137582708Y-71399885D01*
X137582708Y-71399885D02*
X137411279Y-71342742D01*
X137411279Y-71342742D02*
X137296993Y-71342742D01*
X137296993Y-71342742D02*
X137125565Y-71399885D01*
X137125565Y-71399885D02*
X137068422Y-71457028D01*
X135868422Y-72428457D02*
X135925565Y-72485600D01*
X135925565Y-72485600D02*
X136096993Y-72542742D01*
X136096993Y-72542742D02*
X136211279Y-72542742D01*
X136211279Y-72542742D02*
X136382708Y-72485600D01*
X136382708Y-72485600D02*
X136496993Y-72371314D01*
X136496993Y-72371314D02*
X136554136Y-72257028D01*
X136554136Y-72257028D02*
X136611279Y-72028457D01*
X136611279Y-72028457D02*
X136611279Y-71857028D01*
X136611279Y-71857028D02*
X136554136Y-71628457D01*
X136554136Y-71628457D02*
X136496993Y-71514171D01*
X136496993Y-71514171D02*
X136382708Y-71399885D01*
X136382708Y-71399885D02*
X136211279Y-71342742D01*
X136211279Y-71342742D02*
X136096993Y-71342742D01*
X136096993Y-71342742D02*
X135925565Y-71399885D01*
X135925565Y-71399885D02*
X135868422Y-71457028D01*
X138254136Y-73799885D02*
X138368422Y-73742742D01*
X138368422Y-73742742D02*
X138539850Y-73742742D01*
X138539850Y-73742742D02*
X138711279Y-73799885D01*
X138711279Y-73799885D02*
X138825564Y-73914171D01*
X138825564Y-73914171D02*
X138882707Y-74028457D01*
X138882707Y-74028457D02*
X138939850Y-74257028D01*
X138939850Y-74257028D02*
X138939850Y-74428457D01*
X138939850Y-74428457D02*
X138882707Y-74657028D01*
X138882707Y-74657028D02*
X138825564Y-74771314D01*
X138825564Y-74771314D02*
X138711279Y-74885600D01*
X138711279Y-74885600D02*
X138539850Y-74942742D01*
X138539850Y-74942742D02*
X138425564Y-74942742D01*
X138425564Y-74942742D02*
X138254136Y-74885600D01*
X138254136Y-74885600D02*
X138196993Y-74828457D01*
X138196993Y-74828457D02*
X138196993Y-74428457D01*
X138196993Y-74428457D02*
X138425564Y-74428457D01*
X137682707Y-74942742D02*
X137682707Y-73742742D01*
X137682707Y-73742742D02*
X136996993Y-74942742D01*
X136996993Y-74942742D02*
X136996993Y-73742742D01*
X136425564Y-74942742D02*
X136425564Y-73742742D01*
X136425564Y-73742742D02*
X136139850Y-73742742D01*
X136139850Y-73742742D02*
X135968421Y-73799885D01*
X135968421Y-73799885D02*
X135854136Y-73914171D01*
X135854136Y-73914171D02*
X135796993Y-74028457D01*
X135796993Y-74028457D02*
X135739850Y-74257028D01*
X135739850Y-74257028D02*
X135739850Y-74428457D01*
X135739850Y-74428457D02*
X135796993Y-74657028D01*
X135796993Y-74657028D02*
X135854136Y-74771314D01*
X135854136Y-74771314D02*
X135968421Y-74885600D01*
X135968421Y-74885600D02*
X136139850Y-74942742D01*
X136139850Y-74942742D02*
X136425564Y-74942742D01*
D10*
X107333332Y-68869819D02*
X106666666Y-69869819D01*
X106666666Y-68869819D02*
X107333332Y-69869819D01*
X106285713Y-69869819D02*
X106285713Y-69203152D01*
X106285713Y-68869819D02*
X106333332Y-68917438D01*
X106333332Y-68917438D02*
X106285713Y-68965057D01*
X106285713Y-68965057D02*
X106238094Y-68917438D01*
X106238094Y-68917438D02*
X106285713Y-68869819D01*
X106285713Y-68869819D02*
X106285713Y-68965057D01*
X105380952Y-69869819D02*
X105380952Y-69346009D01*
X105380952Y-69346009D02*
X105428571Y-69250771D01*
X105428571Y-69250771D02*
X105523809Y-69203152D01*
X105523809Y-69203152D02*
X105714285Y-69203152D01*
X105714285Y-69203152D02*
X105809523Y-69250771D01*
X105380952Y-69822200D02*
X105476190Y-69869819D01*
X105476190Y-69869819D02*
X105714285Y-69869819D01*
X105714285Y-69869819D02*
X105809523Y-69822200D01*
X105809523Y-69822200D02*
X105857142Y-69726961D01*
X105857142Y-69726961D02*
X105857142Y-69631723D01*
X105857142Y-69631723D02*
X105809523Y-69536485D01*
X105809523Y-69536485D02*
X105714285Y-69488866D01*
X105714285Y-69488866D02*
X105476190Y-69488866D01*
X105476190Y-69488866D02*
X105380952Y-69441247D01*
X104761904Y-69869819D02*
X104857142Y-69822200D01*
X104857142Y-69822200D02*
X104904761Y-69774580D01*
X104904761Y-69774580D02*
X104952380Y-69679342D01*
X104952380Y-69679342D02*
X104952380Y-69393628D01*
X104952380Y-69393628D02*
X104904761Y-69298390D01*
X104904761Y-69298390D02*
X104857142Y-69250771D01*
X104857142Y-69250771D02*
X104761904Y-69203152D01*
X104761904Y-69203152D02*
X104619047Y-69203152D01*
X104619047Y-69203152D02*
X104523809Y-69250771D01*
X104523809Y-69250771D02*
X104476190Y-69298390D01*
X104476190Y-69298390D02*
X104428571Y-69393628D01*
X104428571Y-69393628D02*
X104428571Y-69679342D01*
X104428571Y-69679342D02*
X104476190Y-69774580D01*
X104476190Y-69774580D02*
X104523809Y-69822200D01*
X104523809Y-69822200D02*
X104619047Y-69869819D01*
X104619047Y-69869819D02*
X104761904Y-69869819D01*
X103238094Y-69346009D02*
X102904761Y-69346009D01*
X102761904Y-69869819D02*
X103238094Y-69869819D01*
X103238094Y-69869819D02*
X103238094Y-68869819D01*
X103238094Y-68869819D02*
X102761904Y-68869819D01*
X102380951Y-69822200D02*
X102238094Y-69869819D01*
X102238094Y-69869819D02*
X101999999Y-69869819D01*
X101999999Y-69869819D02*
X101904761Y-69822200D01*
X101904761Y-69822200D02*
X101857142Y-69774580D01*
X101857142Y-69774580D02*
X101809523Y-69679342D01*
X101809523Y-69679342D02*
X101809523Y-69584104D01*
X101809523Y-69584104D02*
X101857142Y-69488866D01*
X101857142Y-69488866D02*
X101904761Y-69441247D01*
X101904761Y-69441247D02*
X101999999Y-69393628D01*
X101999999Y-69393628D02*
X102190475Y-69346009D01*
X102190475Y-69346009D02*
X102285713Y-69298390D01*
X102285713Y-69298390D02*
X102333332Y-69250771D01*
X102333332Y-69250771D02*
X102380951Y-69155533D01*
X102380951Y-69155533D02*
X102380951Y-69060295D01*
X102380951Y-69060295D02*
X102333332Y-68965057D01*
X102333332Y-68965057D02*
X102285713Y-68917438D01*
X102285713Y-68917438D02*
X102190475Y-68869819D01*
X102190475Y-68869819D02*
X101952380Y-68869819D01*
X101952380Y-68869819D02*
X101809523Y-68917438D01*
X101380951Y-69869819D02*
X101380951Y-68869819D01*
X101380951Y-68869819D02*
X100999999Y-68869819D01*
X100999999Y-68869819D02*
X100904761Y-68917438D01*
X100904761Y-68917438D02*
X100857142Y-68965057D01*
X100857142Y-68965057D02*
X100809523Y-69060295D01*
X100809523Y-69060295D02*
X100809523Y-69203152D01*
X100809523Y-69203152D02*
X100857142Y-69298390D01*
X100857142Y-69298390D02*
X100904761Y-69346009D01*
X100904761Y-69346009D02*
X100999999Y-69393628D01*
X100999999Y-69393628D02*
X101380951Y-69393628D01*
X100476189Y-68869819D02*
X99857142Y-68869819D01*
X99857142Y-68869819D02*
X100190475Y-69250771D01*
X100190475Y-69250771D02*
X100047618Y-69250771D01*
X100047618Y-69250771D02*
X99952380Y-69298390D01*
X99952380Y-69298390D02*
X99904761Y-69346009D01*
X99904761Y-69346009D02*
X99857142Y-69441247D01*
X99857142Y-69441247D02*
X99857142Y-69679342D01*
X99857142Y-69679342D02*
X99904761Y-69774580D01*
X99904761Y-69774580D02*
X99952380Y-69822200D01*
X99952380Y-69822200D02*
X100047618Y-69869819D01*
X100047618Y-69869819D02*
X100333332Y-69869819D01*
X100333332Y-69869819D02*
X100428570Y-69822200D01*
X100428570Y-69822200D02*
X100476189Y-69774580D01*
X99476189Y-68965057D02*
X99428570Y-68917438D01*
X99428570Y-68917438D02*
X99333332Y-68869819D01*
X99333332Y-68869819D02*
X99095237Y-68869819D01*
X99095237Y-68869819D02*
X98999999Y-68917438D01*
X98999999Y-68917438D02*
X98952380Y-68965057D01*
X98952380Y-68965057D02*
X98904761Y-69060295D01*
X98904761Y-69060295D02*
X98904761Y-69155533D01*
X98904761Y-69155533D02*
X98952380Y-69298390D01*
X98952380Y-69298390D02*
X99523808Y-69869819D01*
X99523808Y-69869819D02*
X98904761Y-69869819D01*
X98476189Y-69488866D02*
X97714285Y-69488866D01*
X96666666Y-69774580D02*
X96714285Y-69822200D01*
X96714285Y-69822200D02*
X96857142Y-69869819D01*
X96857142Y-69869819D02*
X96952380Y-69869819D01*
X96952380Y-69869819D02*
X97095237Y-69822200D01*
X97095237Y-69822200D02*
X97190475Y-69726961D01*
X97190475Y-69726961D02*
X97238094Y-69631723D01*
X97238094Y-69631723D02*
X97285713Y-69441247D01*
X97285713Y-69441247D02*
X97285713Y-69298390D01*
X97285713Y-69298390D02*
X97238094Y-69107914D01*
X97238094Y-69107914D02*
X97190475Y-69012676D01*
X97190475Y-69012676D02*
X97095237Y-68917438D01*
X97095237Y-68917438D02*
X96952380Y-68869819D01*
X96952380Y-68869819D02*
X96857142Y-68869819D01*
X96857142Y-68869819D02*
X96714285Y-68917438D01*
X96714285Y-68917438D02*
X96666666Y-68965057D01*
X95809523Y-68869819D02*
X95999999Y-68869819D01*
X95999999Y-68869819D02*
X96095237Y-68917438D01*
X96095237Y-68917438D02*
X96142856Y-68965057D01*
X96142856Y-68965057D02*
X96238094Y-69107914D01*
X96238094Y-69107914D02*
X96285713Y-69298390D01*
X96285713Y-69298390D02*
X96285713Y-69679342D01*
X96285713Y-69679342D02*
X96238094Y-69774580D01*
X96238094Y-69774580D02*
X96190475Y-69822200D01*
X96190475Y-69822200D02*
X96095237Y-69869819D01*
X96095237Y-69869819D02*
X95904761Y-69869819D01*
X95904761Y-69869819D02*
X95809523Y-69822200D01*
X95809523Y-69822200D02*
X95761904Y-69774580D01*
X95761904Y-69774580D02*
X95714285Y-69679342D01*
X95714285Y-69679342D02*
X95714285Y-69441247D01*
X95714285Y-69441247D02*
X95761904Y-69346009D01*
X95761904Y-69346009D02*
X95809523Y-69298390D01*
X95809523Y-69298390D02*
X95904761Y-69250771D01*
X95904761Y-69250771D02*
X96095237Y-69250771D01*
X96095237Y-69250771D02*
X96190475Y-69298390D01*
X96190475Y-69298390D02*
X96238094Y-69346009D01*
X96238094Y-69346009D02*
X96285713Y-69441247D01*
%LPC*%
D12*
%TO.C,J2*%
X116200000Y-96200000D03*
%TD*%
%TO.C,J5*%
X140900000Y-88800000D03*
%TD*%
%TO.C,J4*%
X140900000Y-92600000D03*
%TD*%
%TO.C,J3*%
X100900000Y-91800000D03*
%TD*%
D13*
%TO.C,J1*%
X133955000Y-79450000D03*
D14*
X133955000Y-76950000D03*
X133955000Y-74450000D03*
X133955000Y-71950000D03*
%TD*%
%LPD*%
M02*
