%TF.GenerationSoftware,KiCad,Pcbnew,9.0.5*%
%TF.CreationDate,2025-11-20T08:48:28+01:00*%
%TF.ProjectId,acw02_zb-v1.1,61637730-325f-47a6-922d-76312e312e6b,rev?*%
%TF.SameCoordinates,Original*%
%TF.FileFunction,Legend,Top*%
%TF.FilePolarity,Positive*%
%FSLAX46Y46*%
G04 Gerber Fmt 4.6, Leading zero omitted, Abs format (unit mm)*
G04 Created by KiCad (PCBNEW 9.0.5) date 2025-11-20 08:48:28*
%MOMM*%
%LPD*%
G01*
G04 APERTURE LIST*
G04 Aperture macros list*
%AMRoundRect*
0 Rectangle with rounded corners*
0 $1 Rounding radius*
0 $2 $3 $4 $5 $6 $7 $8 $9 X,Y pos of 4 corners*
0 Add a 4 corners polygon primitive as box body*
4,1,4,$2,$3,$4,$5,$6,$7,$8,$9,$2,$3,0*
0 Add four circle primitives for the rounded corners*
1,1,$1+$1,$2,$3*
1,1,$1+$1,$4,$5*
1,1,$1+$1,$6,$7*
1,1,$1+$1,$8,$9*
0 Add four rect primitives between the rounded corners*
20,1,$1+$1,$2,$3,$4,$5,0*
20,1,$1+$1,$4,$5,$6,$7,0*
20,1,$1+$1,$6,$7,$8,$9,0*
20,1,$1+$1,$8,$9,$2,$3,0*%
G04 Aperture macros list end*
%ADD10C,0.150000*%
%ADD11C,0.120000*%
%ADD12C,0.100000*%
%ADD13C,0.127000*%
%ADD14C,0.504000*%
%ADD15RoundRect,0.250000X-1.000000X-0.650000X1.000000X-0.650000X1.000000X0.650000X-1.000000X0.650000X0*%
%ADD16RoundRect,0.525400X-0.900400X-0.525400X0.900400X-0.525400X0.900400X0.525400X-0.900400X0.525400X0*%
%ADD17RoundRect,0.300400X-0.300400X1.000400X-0.300400X-1.000400X0.300400X-1.000400X0.300400X1.000400X0*%
%ADD18C,1.700000*%
%ADD19RoundRect,0.250000X0.262500X0.450000X-0.262500X0.450000X-0.262500X-0.450000X0.262500X-0.450000X0*%
%ADD20C,2.600000*%
%ADD21RoundRect,0.250000X0.475000X-0.250000X0.475000X0.250000X-0.475000X0.250000X-0.475000X-0.250000X0*%
%ADD22RoundRect,0.250000X0.250000X0.475000X-0.250000X0.475000X-0.250000X-0.475000X0.250000X-0.475000X0*%
%ADD23RoundRect,0.250000X-0.650000X0.325000X-0.650000X-0.325000X0.650000X-0.325000X0.650000X0.325000X0*%
%ADD24RoundRect,0.250000X0.700000X1.000000X-0.700000X1.000000X-0.700000X-1.000000X0.700000X-1.000000X0*%
%ADD25RoundRect,0.150000X-0.150000X0.587500X-0.150000X-0.587500X0.150000X-0.587500X0.150000X0.587500X0*%
%ADD26RoundRect,0.250000X0.650000X-0.325000X0.650000X0.325000X-0.650000X0.325000X-0.650000X-0.325000X0*%
%ADD27RoundRect,0.150000X0.150000X-0.825000X0.150000X0.825000X-0.150000X0.825000X-0.150000X-0.825000X0*%
%ADD28R,3.000000X2.290000*%
%ADD29RoundRect,0.250000X-0.450000X0.262500X-0.450000X-0.262500X0.450000X-0.262500X0.450000X0.262500X0*%
%ADD30RoundRect,0.250000X0.450000X-0.262500X0.450000X0.262500X-0.450000X0.262500X-0.450000X-0.262500X0*%
%ADD31RoundRect,0.250000X-0.262500X-0.450000X0.262500X-0.450000X0.262500X0.450000X-0.262500X0.450000X0*%
%ADD32RoundRect,0.250000X0.725000X-0.600000X0.725000X0.600000X-0.725000X0.600000X-0.725000X-0.600000X0*%
%ADD33O,1.950000X1.700000*%
%ADD34RoundRect,0.087500X-0.537500X-0.087500X0.537500X-0.087500X0.537500X0.087500X-0.537500X0.087500X0*%
G04 APERTURE END LIST*
D10*
X139536779Y-95188866D02*
X140298684Y-95188866D01*
X139917731Y-95569819D02*
X139917731Y-94807914D01*
X141251064Y-94569819D02*
X140774874Y-94569819D01*
X140774874Y-94569819D02*
X140727255Y-95046009D01*
X140727255Y-95046009D02*
X140774874Y-94998390D01*
X140774874Y-94998390D02*
X140870112Y-94950771D01*
X140870112Y-94950771D02*
X141108207Y-94950771D01*
X141108207Y-94950771D02*
X141203445Y-94998390D01*
X141203445Y-94998390D02*
X141251064Y-95046009D01*
X141251064Y-95046009D02*
X141298683Y-95141247D01*
X141298683Y-95141247D02*
X141298683Y-95379342D01*
X141298683Y-95379342D02*
X141251064Y-95474580D01*
X141251064Y-95474580D02*
X141203445Y-95522200D01*
X141203445Y-95522200D02*
X141108207Y-95569819D01*
X141108207Y-95569819D02*
X140870112Y-95569819D01*
X140870112Y-95569819D02*
X140774874Y-95522200D01*
X140774874Y-95522200D02*
X140727255Y-95474580D01*
X141584398Y-94569819D02*
X141917731Y-95569819D01*
X141917731Y-95569819D02*
X142251064Y-94569819D01*
X140160588Y-85717438D02*
X140065350Y-85669819D01*
X140065350Y-85669819D02*
X139922493Y-85669819D01*
X139922493Y-85669819D02*
X139779636Y-85717438D01*
X139779636Y-85717438D02*
X139684398Y-85812676D01*
X139684398Y-85812676D02*
X139636779Y-85907914D01*
X139636779Y-85907914D02*
X139589160Y-86098390D01*
X139589160Y-86098390D02*
X139589160Y-86241247D01*
X139589160Y-86241247D02*
X139636779Y-86431723D01*
X139636779Y-86431723D02*
X139684398Y-86526961D01*
X139684398Y-86526961D02*
X139779636Y-86622200D01*
X139779636Y-86622200D02*
X139922493Y-86669819D01*
X139922493Y-86669819D02*
X140017731Y-86669819D01*
X140017731Y-86669819D02*
X140160588Y-86622200D01*
X140160588Y-86622200D02*
X140208207Y-86574580D01*
X140208207Y-86574580D02*
X140208207Y-86241247D01*
X140208207Y-86241247D02*
X140017731Y-86241247D01*
X140636779Y-86669819D02*
X140636779Y-85669819D01*
X140636779Y-85669819D02*
X141208207Y-86669819D01*
X141208207Y-86669819D02*
X141208207Y-85669819D01*
X141684398Y-86669819D02*
X141684398Y-85669819D01*
X141684398Y-85669819D02*
X141922493Y-85669819D01*
X141922493Y-85669819D02*
X142065350Y-85717438D01*
X142065350Y-85717438D02*
X142160588Y-85812676D01*
X142160588Y-85812676D02*
X142208207Y-85907914D01*
X142208207Y-85907914D02*
X142255826Y-86098390D01*
X142255826Y-86098390D02*
X142255826Y-86241247D01*
X142255826Y-86241247D02*
X142208207Y-86431723D01*
X142208207Y-86431723D02*
X142160588Y-86526961D01*
X142160588Y-86526961D02*
X142065350Y-86622200D01*
X142065350Y-86622200D02*
X141922493Y-86669819D01*
X141922493Y-86669819D02*
X141684398Y-86669819D01*
X93838095Y-89369819D02*
X93266667Y-89369819D01*
X93552381Y-89369819D02*
X93552381Y-88369819D01*
X93552381Y-88369819D02*
X93457143Y-88512676D01*
X93457143Y-88512676D02*
X93361905Y-88607914D01*
X93361905Y-88607914D02*
X93266667Y-88655533D01*
X94457143Y-88369819D02*
X94552381Y-88369819D01*
X94552381Y-88369819D02*
X94647619Y-88417438D01*
X94647619Y-88417438D02*
X94695238Y-88465057D01*
X94695238Y-88465057D02*
X94742857Y-88560295D01*
X94742857Y-88560295D02*
X94790476Y-88750771D01*
X94790476Y-88750771D02*
X94790476Y-88988866D01*
X94790476Y-88988866D02*
X94742857Y-89179342D01*
X94742857Y-89179342D02*
X94695238Y-89274580D01*
X94695238Y-89274580D02*
X94647619Y-89322200D01*
X94647619Y-89322200D02*
X94552381Y-89369819D01*
X94552381Y-89369819D02*
X94457143Y-89369819D01*
X94457143Y-89369819D02*
X94361905Y-89322200D01*
X94361905Y-89322200D02*
X94314286Y-89274580D01*
X94314286Y-89274580D02*
X94266667Y-89179342D01*
X94266667Y-89179342D02*
X94219048Y-88988866D01*
X94219048Y-88988866D02*
X94219048Y-88750771D01*
X94219048Y-88750771D02*
X94266667Y-88560295D01*
X94266667Y-88560295D02*
X94314286Y-88465057D01*
X94314286Y-88465057D02*
X94361905Y-88417438D01*
X94361905Y-88417438D02*
X94457143Y-88369819D01*
X95219048Y-89369819D02*
X95219048Y-88369819D01*
X95790476Y-89369819D02*
X95361905Y-88798390D01*
X95790476Y-88369819D02*
X95219048Y-88941247D01*
X96171429Y-89369819D02*
X96409524Y-89369819D01*
X96409524Y-89369819D02*
X96409524Y-89179342D01*
X96409524Y-89179342D02*
X96314286Y-89131723D01*
X96314286Y-89131723D02*
X96219048Y-89036485D01*
X96219048Y-89036485D02*
X96171429Y-88893628D01*
X96171429Y-88893628D02*
X96171429Y-88655533D01*
X96171429Y-88655533D02*
X96219048Y-88512676D01*
X96219048Y-88512676D02*
X96314286Y-88417438D01*
X96314286Y-88417438D02*
X96457143Y-88369819D01*
X96457143Y-88369819D02*
X96647619Y-88369819D01*
X96647619Y-88369819D02*
X96790476Y-88417438D01*
X96790476Y-88417438D02*
X96885714Y-88512676D01*
X96885714Y-88512676D02*
X96933333Y-88655533D01*
X96933333Y-88655533D02*
X96933333Y-88893628D01*
X96933333Y-88893628D02*
X96885714Y-89036485D01*
X96885714Y-89036485D02*
X96790476Y-89131723D01*
X96790476Y-89131723D02*
X96695238Y-89179342D01*
X96695238Y-89179342D02*
X96695238Y-89369819D01*
X96695238Y-89369819D02*
X96933333Y-89369819D01*
X133885714Y-86769819D02*
X133980952Y-86769819D01*
X133980952Y-86769819D02*
X134076190Y-86817438D01*
X134076190Y-86817438D02*
X134123809Y-86865057D01*
X134123809Y-86865057D02*
X134171428Y-86960295D01*
X134171428Y-86960295D02*
X134219047Y-87150771D01*
X134219047Y-87150771D02*
X134219047Y-87388866D01*
X134219047Y-87388866D02*
X134171428Y-87579342D01*
X134171428Y-87579342D02*
X134123809Y-87674580D01*
X134123809Y-87674580D02*
X134076190Y-87722200D01*
X134076190Y-87722200D02*
X133980952Y-87769819D01*
X133980952Y-87769819D02*
X133885714Y-87769819D01*
X133885714Y-87769819D02*
X133790476Y-87722200D01*
X133790476Y-87722200D02*
X133742857Y-87674580D01*
X133742857Y-87674580D02*
X133695238Y-87579342D01*
X133695238Y-87579342D02*
X133647619Y-87388866D01*
X133647619Y-87388866D02*
X133647619Y-87150771D01*
X133647619Y-87150771D02*
X133695238Y-86960295D01*
X133695238Y-86960295D02*
X133742857Y-86865057D01*
X133742857Y-86865057D02*
X133790476Y-86817438D01*
X133790476Y-86817438D02*
X133885714Y-86769819D01*
X134695238Y-87722200D02*
X134695238Y-87769819D01*
X134695238Y-87769819D02*
X134647619Y-87865057D01*
X134647619Y-87865057D02*
X134600000Y-87912676D01*
X135647618Y-87769819D02*
X135076190Y-87769819D01*
X135361904Y-87769819D02*
X135361904Y-86769819D01*
X135361904Y-86769819D02*
X135266666Y-86912676D01*
X135266666Y-86912676D02*
X135171428Y-87007914D01*
X135171428Y-87007914D02*
X135076190Y-87055533D01*
X136076190Y-87103152D02*
X136076190Y-88103152D01*
X136552380Y-87626961D02*
X136599999Y-87722200D01*
X136599999Y-87722200D02*
X136695237Y-87769819D01*
X136076190Y-87626961D02*
X136123809Y-87722200D01*
X136123809Y-87722200D02*
X136219047Y-87769819D01*
X136219047Y-87769819D02*
X136409523Y-87769819D01*
X136409523Y-87769819D02*
X136504761Y-87722200D01*
X136504761Y-87722200D02*
X136552380Y-87626961D01*
X136552380Y-87626961D02*
X136552380Y-87103152D01*
X137457142Y-87246009D02*
X137123809Y-87246009D01*
X137123809Y-87769819D02*
X137123809Y-86769819D01*
X137123809Y-86769819D02*
X137599999Y-86769819D01*
X109438095Y-97869819D02*
X108866667Y-97869819D01*
X109152381Y-97869819D02*
X109152381Y-96869819D01*
X109152381Y-96869819D02*
X109057143Y-97012676D01*
X109057143Y-97012676D02*
X108961905Y-97107914D01*
X108961905Y-97107914D02*
X108866667Y-97155533D01*
X110057143Y-96869819D02*
X110152381Y-96869819D01*
X110152381Y-96869819D02*
X110247619Y-96917438D01*
X110247619Y-96917438D02*
X110295238Y-96965057D01*
X110295238Y-96965057D02*
X110342857Y-97060295D01*
X110342857Y-97060295D02*
X110390476Y-97250771D01*
X110390476Y-97250771D02*
X110390476Y-97488866D01*
X110390476Y-97488866D02*
X110342857Y-97679342D01*
X110342857Y-97679342D02*
X110295238Y-97774580D01*
X110295238Y-97774580D02*
X110247619Y-97822200D01*
X110247619Y-97822200D02*
X110152381Y-97869819D01*
X110152381Y-97869819D02*
X110057143Y-97869819D01*
X110057143Y-97869819D02*
X109961905Y-97822200D01*
X109961905Y-97822200D02*
X109914286Y-97774580D01*
X109914286Y-97774580D02*
X109866667Y-97679342D01*
X109866667Y-97679342D02*
X109819048Y-97488866D01*
X109819048Y-97488866D02*
X109819048Y-97250771D01*
X109819048Y-97250771D02*
X109866667Y-97060295D01*
X109866667Y-97060295D02*
X109914286Y-96965057D01*
X109914286Y-96965057D02*
X109961905Y-96917438D01*
X109961905Y-96917438D02*
X110057143Y-96869819D01*
X110819048Y-97869819D02*
X110819048Y-96869819D01*
X111390476Y-97869819D02*
X110961905Y-97298390D01*
X111390476Y-96869819D02*
X110819048Y-97441247D01*
X111771429Y-97869819D02*
X112009524Y-97869819D01*
X112009524Y-97869819D02*
X112009524Y-97679342D01*
X112009524Y-97679342D02*
X111914286Y-97631723D01*
X111914286Y-97631723D02*
X111819048Y-97536485D01*
X111819048Y-97536485D02*
X111771429Y-97393628D01*
X111771429Y-97393628D02*
X111771429Y-97155533D01*
X111771429Y-97155533D02*
X111819048Y-97012676D01*
X111819048Y-97012676D02*
X111914286Y-96917438D01*
X111914286Y-96917438D02*
X112057143Y-96869819D01*
X112057143Y-96869819D02*
X112247619Y-96869819D01*
X112247619Y-96869819D02*
X112390476Y-96917438D01*
X112390476Y-96917438D02*
X112485714Y-97012676D01*
X112485714Y-97012676D02*
X112533333Y-97155533D01*
X112533333Y-97155533D02*
X112533333Y-97393628D01*
X112533333Y-97393628D02*
X112485714Y-97536485D01*
X112485714Y-97536485D02*
X112390476Y-97631723D01*
X112390476Y-97631723D02*
X112295238Y-97679342D01*
X112295238Y-97679342D02*
X112295238Y-97869819D01*
X112295238Y-97869819D02*
X112533333Y-97869819D01*
X105238095Y-89369819D02*
X104666667Y-89369819D01*
X104952381Y-89369819D02*
X104952381Y-88369819D01*
X104952381Y-88369819D02*
X104857143Y-88512676D01*
X104857143Y-88512676D02*
X104761905Y-88607914D01*
X104761905Y-88607914D02*
X104666667Y-88655533D01*
X105857143Y-88369819D02*
X105952381Y-88369819D01*
X105952381Y-88369819D02*
X106047619Y-88417438D01*
X106047619Y-88417438D02*
X106095238Y-88465057D01*
X106095238Y-88465057D02*
X106142857Y-88560295D01*
X106142857Y-88560295D02*
X106190476Y-88750771D01*
X106190476Y-88750771D02*
X106190476Y-88988866D01*
X106190476Y-88988866D02*
X106142857Y-89179342D01*
X106142857Y-89179342D02*
X106095238Y-89274580D01*
X106095238Y-89274580D02*
X106047619Y-89322200D01*
X106047619Y-89322200D02*
X105952381Y-89369819D01*
X105952381Y-89369819D02*
X105857143Y-89369819D01*
X105857143Y-89369819D02*
X105761905Y-89322200D01*
X105761905Y-89322200D02*
X105714286Y-89274580D01*
X105714286Y-89274580D02*
X105666667Y-89179342D01*
X105666667Y-89179342D02*
X105619048Y-88988866D01*
X105619048Y-88988866D02*
X105619048Y-88750771D01*
X105619048Y-88750771D02*
X105666667Y-88560295D01*
X105666667Y-88560295D02*
X105714286Y-88465057D01*
X105714286Y-88465057D02*
X105761905Y-88417438D01*
X105761905Y-88417438D02*
X105857143Y-88369819D01*
X106619048Y-89369819D02*
X106619048Y-88369819D01*
X107190476Y-89369819D02*
X106761905Y-88798390D01*
X107190476Y-88369819D02*
X106619048Y-88941247D01*
X107571429Y-89369819D02*
X107809524Y-89369819D01*
X107809524Y-89369819D02*
X107809524Y-89179342D01*
X107809524Y-89179342D02*
X107714286Y-89131723D01*
X107714286Y-89131723D02*
X107619048Y-89036485D01*
X107619048Y-89036485D02*
X107571429Y-88893628D01*
X107571429Y-88893628D02*
X107571429Y-88655533D01*
X107571429Y-88655533D02*
X107619048Y-88512676D01*
X107619048Y-88512676D02*
X107714286Y-88417438D01*
X107714286Y-88417438D02*
X107857143Y-88369819D01*
X107857143Y-88369819D02*
X108047619Y-88369819D01*
X108047619Y-88369819D02*
X108190476Y-88417438D01*
X108190476Y-88417438D02*
X108285714Y-88512676D01*
X108285714Y-88512676D02*
X108333333Y-88655533D01*
X108333333Y-88655533D02*
X108333333Y-88893628D01*
X108333333Y-88893628D02*
X108285714Y-89036485D01*
X108285714Y-89036485D02*
X108190476Y-89131723D01*
X108190476Y-89131723D02*
X108095238Y-89179342D01*
X108095238Y-89179342D02*
X108095238Y-89369819D01*
X108095238Y-89369819D02*
X108333333Y-89369819D01*
X121585714Y-89669819D02*
X121680952Y-89669819D01*
X121680952Y-89669819D02*
X121776190Y-89717438D01*
X121776190Y-89717438D02*
X121823809Y-89765057D01*
X121823809Y-89765057D02*
X121871428Y-89860295D01*
X121871428Y-89860295D02*
X121919047Y-90050771D01*
X121919047Y-90050771D02*
X121919047Y-90288866D01*
X121919047Y-90288866D02*
X121871428Y-90479342D01*
X121871428Y-90479342D02*
X121823809Y-90574580D01*
X121823809Y-90574580D02*
X121776190Y-90622200D01*
X121776190Y-90622200D02*
X121680952Y-90669819D01*
X121680952Y-90669819D02*
X121585714Y-90669819D01*
X121585714Y-90669819D02*
X121490476Y-90622200D01*
X121490476Y-90622200D02*
X121442857Y-90574580D01*
X121442857Y-90574580D02*
X121395238Y-90479342D01*
X121395238Y-90479342D02*
X121347619Y-90288866D01*
X121347619Y-90288866D02*
X121347619Y-90050771D01*
X121347619Y-90050771D02*
X121395238Y-89860295D01*
X121395238Y-89860295D02*
X121442857Y-89765057D01*
X121442857Y-89765057D02*
X121490476Y-89717438D01*
X121490476Y-89717438D02*
X121585714Y-89669819D01*
X122395238Y-90622200D02*
X122395238Y-90669819D01*
X122395238Y-90669819D02*
X122347619Y-90765057D01*
X122347619Y-90765057D02*
X122300000Y-90812676D01*
X123347618Y-90669819D02*
X122776190Y-90669819D01*
X123061904Y-90669819D02*
X123061904Y-89669819D01*
X123061904Y-89669819D02*
X122966666Y-89812676D01*
X122966666Y-89812676D02*
X122871428Y-89907914D01*
X122871428Y-89907914D02*
X122776190Y-89955533D01*
X123776190Y-90003152D02*
X123776190Y-91003152D01*
X124252380Y-90526961D02*
X124299999Y-90622200D01*
X124299999Y-90622200D02*
X124395237Y-90669819D01*
X123776190Y-90526961D02*
X123823809Y-90622200D01*
X123823809Y-90622200D02*
X123919047Y-90669819D01*
X123919047Y-90669819D02*
X124109523Y-90669819D01*
X124109523Y-90669819D02*
X124204761Y-90622200D01*
X124204761Y-90622200D02*
X124252380Y-90526961D01*
X124252380Y-90526961D02*
X124252380Y-90003152D01*
X125157142Y-90146009D02*
X124823809Y-90146009D01*
X124823809Y-90669819D02*
X124823809Y-89669819D01*
X124823809Y-89669819D02*
X125299999Y-89669819D01*
X120669819Y-87961904D02*
X120669819Y-88533332D01*
X120669819Y-88247618D02*
X119669819Y-88247618D01*
X119669819Y-88247618D02*
X119812676Y-88342856D01*
X119812676Y-88342856D02*
X119907914Y-88438094D01*
X119907914Y-88438094D02*
X119955533Y-88533332D01*
X119669819Y-87342856D02*
X119669819Y-87247618D01*
X119669819Y-87247618D02*
X119717438Y-87152380D01*
X119717438Y-87152380D02*
X119765057Y-87104761D01*
X119765057Y-87104761D02*
X119860295Y-87057142D01*
X119860295Y-87057142D02*
X120050771Y-87009523D01*
X120050771Y-87009523D02*
X120288866Y-87009523D01*
X120288866Y-87009523D02*
X120479342Y-87057142D01*
X120479342Y-87057142D02*
X120574580Y-87104761D01*
X120574580Y-87104761D02*
X120622200Y-87152380D01*
X120622200Y-87152380D02*
X120669819Y-87247618D01*
X120669819Y-87247618D02*
X120669819Y-87342856D01*
X120669819Y-87342856D02*
X120622200Y-87438094D01*
X120622200Y-87438094D02*
X120574580Y-87485713D01*
X120574580Y-87485713D02*
X120479342Y-87533332D01*
X120479342Y-87533332D02*
X120288866Y-87580951D01*
X120288866Y-87580951D02*
X120050771Y-87580951D01*
X120050771Y-87580951D02*
X119860295Y-87533332D01*
X119860295Y-87533332D02*
X119765057Y-87485713D01*
X119765057Y-87485713D02*
X119717438Y-87438094D01*
X119717438Y-87438094D02*
X119669819Y-87342856D01*
X120669819Y-86580951D02*
X119669819Y-86580951D01*
X120669819Y-86009523D02*
X120098390Y-86438094D01*
X119669819Y-86009523D02*
X120241247Y-86580951D01*
X120669819Y-85628570D02*
X120669819Y-85390475D01*
X120669819Y-85390475D02*
X120479342Y-85390475D01*
X120479342Y-85390475D02*
X120431723Y-85485713D01*
X120431723Y-85485713D02*
X120336485Y-85580951D01*
X120336485Y-85580951D02*
X120193628Y-85628570D01*
X120193628Y-85628570D02*
X119955533Y-85628570D01*
X119955533Y-85628570D02*
X119812676Y-85580951D01*
X119812676Y-85580951D02*
X119717438Y-85485713D01*
X119717438Y-85485713D02*
X119669819Y-85342856D01*
X119669819Y-85342856D02*
X119669819Y-85152380D01*
X119669819Y-85152380D02*
X119717438Y-85009523D01*
X119717438Y-85009523D02*
X119812676Y-84914285D01*
X119812676Y-84914285D02*
X119955533Y-84866666D01*
X119955533Y-84866666D02*
X120193628Y-84866666D01*
X120193628Y-84866666D02*
X120336485Y-84914285D01*
X120336485Y-84914285D02*
X120431723Y-85009523D01*
X120431723Y-85009523D02*
X120479342Y-85104761D01*
X120479342Y-85104761D02*
X120669819Y-85104761D01*
X120669819Y-85104761D02*
X120669819Y-84866666D01*
X114676190Y-89869819D02*
X114200000Y-89869819D01*
X114200000Y-89869819D02*
X114152381Y-90346009D01*
X114152381Y-90346009D02*
X114200000Y-90298390D01*
X114200000Y-90298390D02*
X114295238Y-90250771D01*
X114295238Y-90250771D02*
X114533333Y-90250771D01*
X114533333Y-90250771D02*
X114628571Y-90298390D01*
X114628571Y-90298390D02*
X114676190Y-90346009D01*
X114676190Y-90346009D02*
X114723809Y-90441247D01*
X114723809Y-90441247D02*
X114723809Y-90679342D01*
X114723809Y-90679342D02*
X114676190Y-90774580D01*
X114676190Y-90774580D02*
X114628571Y-90822200D01*
X114628571Y-90822200D02*
X114533333Y-90869819D01*
X114533333Y-90869819D02*
X114295238Y-90869819D01*
X114295238Y-90869819D02*
X114200000Y-90822200D01*
X114200000Y-90822200D02*
X114152381Y-90774580D01*
X115104762Y-89965057D02*
X115152381Y-89917438D01*
X115152381Y-89917438D02*
X115247619Y-89869819D01*
X115247619Y-89869819D02*
X115485714Y-89869819D01*
X115485714Y-89869819D02*
X115580952Y-89917438D01*
X115580952Y-89917438D02*
X115628571Y-89965057D01*
X115628571Y-89965057D02*
X115676190Y-90060295D01*
X115676190Y-90060295D02*
X115676190Y-90155533D01*
X115676190Y-90155533D02*
X115628571Y-90298390D01*
X115628571Y-90298390D02*
X115057143Y-90869819D01*
X115057143Y-90869819D02*
X115676190Y-90869819D01*
X116152381Y-90822200D02*
X116152381Y-90869819D01*
X116152381Y-90869819D02*
X116104762Y-90965057D01*
X116104762Y-90965057D02*
X116057143Y-91012676D01*
X116485714Y-89869819D02*
X117104761Y-89869819D01*
X117104761Y-89869819D02*
X116771428Y-90250771D01*
X116771428Y-90250771D02*
X116914285Y-90250771D01*
X116914285Y-90250771D02*
X117009523Y-90298390D01*
X117009523Y-90298390D02*
X117057142Y-90346009D01*
X117057142Y-90346009D02*
X117104761Y-90441247D01*
X117104761Y-90441247D02*
X117104761Y-90679342D01*
X117104761Y-90679342D02*
X117057142Y-90774580D01*
X117057142Y-90774580D02*
X117009523Y-90822200D01*
X117009523Y-90822200D02*
X116914285Y-90869819D01*
X116914285Y-90869819D02*
X116628571Y-90869819D01*
X116628571Y-90869819D02*
X116533333Y-90822200D01*
X116533333Y-90822200D02*
X116485714Y-90774580D01*
X117533333Y-90869819D02*
X117533333Y-89869819D01*
X118104761Y-90869819D02*
X117676190Y-90298390D01*
X118104761Y-89869819D02*
X117533333Y-90441247D01*
X118485714Y-90869819D02*
X118723809Y-90869819D01*
X118723809Y-90869819D02*
X118723809Y-90679342D01*
X118723809Y-90679342D02*
X118628571Y-90631723D01*
X118628571Y-90631723D02*
X118533333Y-90536485D01*
X118533333Y-90536485D02*
X118485714Y-90393628D01*
X118485714Y-90393628D02*
X118485714Y-90155533D01*
X118485714Y-90155533D02*
X118533333Y-90012676D01*
X118533333Y-90012676D02*
X118628571Y-89917438D01*
X118628571Y-89917438D02*
X118771428Y-89869819D01*
X118771428Y-89869819D02*
X118961904Y-89869819D01*
X118961904Y-89869819D02*
X119104761Y-89917438D01*
X119104761Y-89917438D02*
X119199999Y-90012676D01*
X119199999Y-90012676D02*
X119247618Y-90155533D01*
X119247618Y-90155533D02*
X119247618Y-90393628D01*
X119247618Y-90393628D02*
X119199999Y-90536485D01*
X119199999Y-90536485D02*
X119104761Y-90631723D01*
X119104761Y-90631723D02*
X119009523Y-90679342D01*
X119009523Y-90679342D02*
X119009523Y-90869819D01*
X119009523Y-90869819D02*
X119247618Y-90869819D01*
X130293922Y-78869819D02*
X130865350Y-78869819D01*
X130579636Y-79869819D02*
X130579636Y-78869819D01*
X131103446Y-78869819D02*
X131770112Y-79869819D01*
X131770112Y-78869819D02*
X131103446Y-79869819D01*
X98338095Y-97669819D02*
X97766667Y-97669819D01*
X98052381Y-97669819D02*
X98052381Y-96669819D01*
X98052381Y-96669819D02*
X97957143Y-96812676D01*
X97957143Y-96812676D02*
X97861905Y-96907914D01*
X97861905Y-96907914D02*
X97766667Y-96955533D01*
X98957143Y-96669819D02*
X99052381Y-96669819D01*
X99052381Y-96669819D02*
X99147619Y-96717438D01*
X99147619Y-96717438D02*
X99195238Y-96765057D01*
X99195238Y-96765057D02*
X99242857Y-96860295D01*
X99242857Y-96860295D02*
X99290476Y-97050771D01*
X99290476Y-97050771D02*
X99290476Y-97288866D01*
X99290476Y-97288866D02*
X99242857Y-97479342D01*
X99242857Y-97479342D02*
X99195238Y-97574580D01*
X99195238Y-97574580D02*
X99147619Y-97622200D01*
X99147619Y-97622200D02*
X99052381Y-97669819D01*
X99052381Y-97669819D02*
X98957143Y-97669819D01*
X98957143Y-97669819D02*
X98861905Y-97622200D01*
X98861905Y-97622200D02*
X98814286Y-97574580D01*
X98814286Y-97574580D02*
X98766667Y-97479342D01*
X98766667Y-97479342D02*
X98719048Y-97288866D01*
X98719048Y-97288866D02*
X98719048Y-97050771D01*
X98719048Y-97050771D02*
X98766667Y-96860295D01*
X98766667Y-96860295D02*
X98814286Y-96765057D01*
X98814286Y-96765057D02*
X98861905Y-96717438D01*
X98861905Y-96717438D02*
X98957143Y-96669819D01*
X99719048Y-97669819D02*
X99719048Y-96669819D01*
X100290476Y-97669819D02*
X99861905Y-97098390D01*
X100290476Y-96669819D02*
X99719048Y-97241247D01*
X100671429Y-97669819D02*
X100909524Y-97669819D01*
X100909524Y-97669819D02*
X100909524Y-97479342D01*
X100909524Y-97479342D02*
X100814286Y-97431723D01*
X100814286Y-97431723D02*
X100719048Y-97336485D01*
X100719048Y-97336485D02*
X100671429Y-97193628D01*
X100671429Y-97193628D02*
X100671429Y-96955533D01*
X100671429Y-96955533D02*
X100719048Y-96812676D01*
X100719048Y-96812676D02*
X100814286Y-96717438D01*
X100814286Y-96717438D02*
X100957143Y-96669819D01*
X100957143Y-96669819D02*
X101147619Y-96669819D01*
X101147619Y-96669819D02*
X101290476Y-96717438D01*
X101290476Y-96717438D02*
X101385714Y-96812676D01*
X101385714Y-96812676D02*
X101433333Y-96955533D01*
X101433333Y-96955533D02*
X101433333Y-97193628D01*
X101433333Y-97193628D02*
X101385714Y-97336485D01*
X101385714Y-97336485D02*
X101290476Y-97431723D01*
X101290476Y-97431723D02*
X101195238Y-97479342D01*
X101195238Y-97479342D02*
X101195238Y-97669819D01*
X101195238Y-97669819D02*
X101433333Y-97669819D01*
X119928571Y-96302485D02*
X120500000Y-96302485D01*
X119814285Y-96645342D02*
X120214285Y-95445342D01*
X120214285Y-95445342D02*
X120614285Y-96645342D01*
X121699999Y-96531057D02*
X121642856Y-96588200D01*
X121642856Y-96588200D02*
X121471428Y-96645342D01*
X121471428Y-96645342D02*
X121357142Y-96645342D01*
X121357142Y-96645342D02*
X121185713Y-96588200D01*
X121185713Y-96588200D02*
X121071428Y-96473914D01*
X121071428Y-96473914D02*
X121014285Y-96359628D01*
X121014285Y-96359628D02*
X120957142Y-96131057D01*
X120957142Y-96131057D02*
X120957142Y-95959628D01*
X120957142Y-95959628D02*
X121014285Y-95731057D01*
X121014285Y-95731057D02*
X121071428Y-95616771D01*
X121071428Y-95616771D02*
X121185713Y-95502485D01*
X121185713Y-95502485D02*
X121357142Y-95445342D01*
X121357142Y-95445342D02*
X121471428Y-95445342D01*
X121471428Y-95445342D02*
X121642856Y-95502485D01*
X121642856Y-95502485D02*
X121699999Y-95559628D01*
X122099999Y-95445342D02*
X122385713Y-96645342D01*
X122385713Y-96645342D02*
X122614285Y-95788200D01*
X122614285Y-95788200D02*
X122842856Y-96645342D01*
X122842856Y-96645342D02*
X123128571Y-95445342D01*
X123814285Y-95445342D02*
X123928571Y-95445342D01*
X123928571Y-95445342D02*
X124042857Y-95502485D01*
X124042857Y-95502485D02*
X124100000Y-95559628D01*
X124100000Y-95559628D02*
X124157142Y-95673914D01*
X124157142Y-95673914D02*
X124214285Y-95902485D01*
X124214285Y-95902485D02*
X124214285Y-96188200D01*
X124214285Y-96188200D02*
X124157142Y-96416771D01*
X124157142Y-96416771D02*
X124100000Y-96531057D01*
X124100000Y-96531057D02*
X124042857Y-96588200D01*
X124042857Y-96588200D02*
X123928571Y-96645342D01*
X123928571Y-96645342D02*
X123814285Y-96645342D01*
X123814285Y-96645342D02*
X123700000Y-96588200D01*
X123700000Y-96588200D02*
X123642857Y-96531057D01*
X123642857Y-96531057D02*
X123585714Y-96416771D01*
X123585714Y-96416771D02*
X123528571Y-96188200D01*
X123528571Y-96188200D02*
X123528571Y-95902485D01*
X123528571Y-95902485D02*
X123585714Y-95673914D01*
X123585714Y-95673914D02*
X123642857Y-95559628D01*
X123642857Y-95559628D02*
X123700000Y-95502485D01*
X123700000Y-95502485D02*
X123814285Y-95445342D01*
X124671428Y-95559628D02*
X124728571Y-95502485D01*
X124728571Y-95502485D02*
X124842857Y-95445342D01*
X124842857Y-95445342D02*
X125128571Y-95445342D01*
X125128571Y-95445342D02*
X125242857Y-95502485D01*
X125242857Y-95502485D02*
X125299999Y-95559628D01*
X125299999Y-95559628D02*
X125357142Y-95673914D01*
X125357142Y-95673914D02*
X125357142Y-95788200D01*
X125357142Y-95788200D02*
X125299999Y-95959628D01*
X125299999Y-95959628D02*
X124614285Y-96645342D01*
X124614285Y-96645342D02*
X125357142Y-96645342D01*
X125871428Y-96188200D02*
X126785714Y-96188200D01*
X127242856Y-95445342D02*
X128042856Y-95445342D01*
X128042856Y-95445342D02*
X127242856Y-96645342D01*
X127242856Y-96645342D02*
X128042856Y-96645342D01*
X128899999Y-96016771D02*
X129071427Y-96073914D01*
X129071427Y-96073914D02*
X129128570Y-96131057D01*
X129128570Y-96131057D02*
X129185713Y-96245342D01*
X129185713Y-96245342D02*
X129185713Y-96416771D01*
X129185713Y-96416771D02*
X129128570Y-96531057D01*
X129128570Y-96531057D02*
X129071427Y-96588200D01*
X129071427Y-96588200D02*
X128957142Y-96645342D01*
X128957142Y-96645342D02*
X128499999Y-96645342D01*
X128499999Y-96645342D02*
X128499999Y-95445342D01*
X128499999Y-95445342D02*
X128899999Y-95445342D01*
X128899999Y-95445342D02*
X129014285Y-95502485D01*
X129014285Y-95502485D02*
X129071427Y-95559628D01*
X129071427Y-95559628D02*
X129128570Y-95673914D01*
X129128570Y-95673914D02*
X129128570Y-95788200D01*
X129128570Y-95788200D02*
X129071427Y-95902485D01*
X129071427Y-95902485D02*
X129014285Y-95959628D01*
X129014285Y-95959628D02*
X128899999Y-96016771D01*
X128899999Y-96016771D02*
X128499999Y-96016771D01*
X130499999Y-95845342D02*
X130785713Y-96645342D01*
X130785713Y-96645342D02*
X131071428Y-95845342D01*
X132157142Y-96645342D02*
X131471428Y-96645342D01*
X131814285Y-96645342D02*
X131814285Y-95445342D01*
X131814285Y-95445342D02*
X131699999Y-95616771D01*
X131699999Y-95616771D02*
X131585714Y-95731057D01*
X131585714Y-95731057D02*
X131471428Y-95788200D01*
X132671428Y-96531057D02*
X132728571Y-96588200D01*
X132728571Y-96588200D02*
X132671428Y-96645342D01*
X132671428Y-96645342D02*
X132614285Y-96588200D01*
X132614285Y-96588200D02*
X132671428Y-96531057D01*
X132671428Y-96531057D02*
X132671428Y-96645342D01*
X133871428Y-96645342D02*
X133185714Y-96645342D01*
X133528571Y-96645342D02*
X133528571Y-95445342D01*
X133528571Y-95445342D02*
X133414285Y-95616771D01*
X133414285Y-95616771D02*
X133300000Y-95731057D01*
X133300000Y-95731057D02*
X133185714Y-95788200D01*
X115200000Y-94069819D02*
X115200000Y-93069819D01*
X115866666Y-93069819D02*
X116057142Y-93069819D01*
X116057142Y-93069819D02*
X116152380Y-93117438D01*
X116152380Y-93117438D02*
X116247618Y-93212676D01*
X116247618Y-93212676D02*
X116295237Y-93403152D01*
X116295237Y-93403152D02*
X116295237Y-93736485D01*
X116295237Y-93736485D02*
X116247618Y-93926961D01*
X116247618Y-93926961D02*
X116152380Y-94022200D01*
X116152380Y-94022200D02*
X116057142Y-94069819D01*
X116057142Y-94069819D02*
X115866666Y-94069819D01*
X115866666Y-94069819D02*
X115771428Y-94022200D01*
X115771428Y-94022200D02*
X115676190Y-93926961D01*
X115676190Y-93926961D02*
X115628571Y-93736485D01*
X115628571Y-93736485D02*
X115628571Y-93403152D01*
X115628571Y-93403152D02*
X115676190Y-93212676D01*
X115676190Y-93212676D02*
X115771428Y-93117438D01*
X115771428Y-93117438D02*
X115866666Y-93069819D01*
X117247618Y-94069819D02*
X116676190Y-94069819D01*
X116961904Y-94069819D02*
X116961904Y-93069819D01*
X116961904Y-93069819D02*
X116866666Y-93212676D01*
X116866666Y-93212676D02*
X116771428Y-93307914D01*
X116771428Y-93307914D02*
X116676190Y-93355533D01*
X129928922Y-71369819D02*
X130262255Y-72369819D01*
X130262255Y-72369819D02*
X130595588Y-71369819D01*
X131500350Y-72274580D02*
X131452731Y-72322200D01*
X131452731Y-72322200D02*
X131309874Y-72369819D01*
X131309874Y-72369819D02*
X131214636Y-72369819D01*
X131214636Y-72369819D02*
X131071779Y-72322200D01*
X131071779Y-72322200D02*
X130976541Y-72226961D01*
X130976541Y-72226961D02*
X130928922Y-72131723D01*
X130928922Y-72131723D02*
X130881303Y-71941247D01*
X130881303Y-71941247D02*
X130881303Y-71798390D01*
X130881303Y-71798390D02*
X130928922Y-71607914D01*
X130928922Y-71607914D02*
X130976541Y-71512676D01*
X130976541Y-71512676D02*
X131071779Y-71417438D01*
X131071779Y-71417438D02*
X131214636Y-71369819D01*
X131214636Y-71369819D02*
X131309874Y-71369819D01*
X131309874Y-71369819D02*
X131452731Y-71417438D01*
X131452731Y-71417438D02*
X131500350Y-71465057D01*
X132500350Y-72274580D02*
X132452731Y-72322200D01*
X132452731Y-72322200D02*
X132309874Y-72369819D01*
X132309874Y-72369819D02*
X132214636Y-72369819D01*
X132214636Y-72369819D02*
X132071779Y-72322200D01*
X132071779Y-72322200D02*
X131976541Y-72226961D01*
X131976541Y-72226961D02*
X131928922Y-72131723D01*
X131928922Y-72131723D02*
X131881303Y-71941247D01*
X131881303Y-71941247D02*
X131881303Y-71798390D01*
X131881303Y-71798390D02*
X131928922Y-71607914D01*
X131928922Y-71607914D02*
X131976541Y-71512676D01*
X131976541Y-71512676D02*
X132071779Y-71417438D01*
X132071779Y-71417438D02*
X132214636Y-71369819D01*
X132214636Y-71369819D02*
X132309874Y-71369819D01*
X132309874Y-71369819D02*
X132452731Y-71417438D01*
X132452731Y-71417438D02*
X132500350Y-71465057D01*
X130560588Y-73917438D02*
X130465350Y-73869819D01*
X130465350Y-73869819D02*
X130322493Y-73869819D01*
X130322493Y-73869819D02*
X130179636Y-73917438D01*
X130179636Y-73917438D02*
X130084398Y-74012676D01*
X130084398Y-74012676D02*
X130036779Y-74107914D01*
X130036779Y-74107914D02*
X129989160Y-74298390D01*
X129989160Y-74298390D02*
X129989160Y-74441247D01*
X129989160Y-74441247D02*
X130036779Y-74631723D01*
X130036779Y-74631723D02*
X130084398Y-74726961D01*
X130084398Y-74726961D02*
X130179636Y-74822200D01*
X130179636Y-74822200D02*
X130322493Y-74869819D01*
X130322493Y-74869819D02*
X130417731Y-74869819D01*
X130417731Y-74869819D02*
X130560588Y-74822200D01*
X130560588Y-74822200D02*
X130608207Y-74774580D01*
X130608207Y-74774580D02*
X130608207Y-74441247D01*
X130608207Y-74441247D02*
X130417731Y-74441247D01*
X131036779Y-74869819D02*
X131036779Y-73869819D01*
X131036779Y-73869819D02*
X131608207Y-74869819D01*
X131608207Y-74869819D02*
X131608207Y-73869819D01*
X132084398Y-74869819D02*
X132084398Y-73869819D01*
X132084398Y-73869819D02*
X132322493Y-73869819D01*
X132322493Y-73869819D02*
X132465350Y-73917438D01*
X132465350Y-73917438D02*
X132560588Y-74012676D01*
X132560588Y-74012676D02*
X132608207Y-74107914D01*
X132608207Y-74107914D02*
X132655826Y-74298390D01*
X132655826Y-74298390D02*
X132655826Y-74441247D01*
X132655826Y-74441247D02*
X132608207Y-74631723D01*
X132608207Y-74631723D02*
X132560588Y-74726961D01*
X132560588Y-74726961D02*
X132465350Y-74822200D01*
X132465350Y-74822200D02*
X132322493Y-74869819D01*
X132322493Y-74869819D02*
X132084398Y-74869819D01*
X100000000Y-89869819D02*
X100000000Y-88869819D01*
X100666666Y-88869819D02*
X100857142Y-88869819D01*
X100857142Y-88869819D02*
X100952380Y-88917438D01*
X100952380Y-88917438D02*
X101047618Y-89012676D01*
X101047618Y-89012676D02*
X101095237Y-89203152D01*
X101095237Y-89203152D02*
X101095237Y-89536485D01*
X101095237Y-89536485D02*
X101047618Y-89726961D01*
X101047618Y-89726961D02*
X100952380Y-89822200D01*
X100952380Y-89822200D02*
X100857142Y-89869819D01*
X100857142Y-89869819D02*
X100666666Y-89869819D01*
X100666666Y-89869819D02*
X100571428Y-89822200D01*
X100571428Y-89822200D02*
X100476190Y-89726961D01*
X100476190Y-89726961D02*
X100428571Y-89536485D01*
X100428571Y-89536485D02*
X100428571Y-89203152D01*
X100428571Y-89203152D02*
X100476190Y-89012676D01*
X100476190Y-89012676D02*
X100571428Y-88917438D01*
X100571428Y-88917438D02*
X100666666Y-88869819D01*
X101476190Y-88965057D02*
X101523809Y-88917438D01*
X101523809Y-88917438D02*
X101619047Y-88869819D01*
X101619047Y-88869819D02*
X101857142Y-88869819D01*
X101857142Y-88869819D02*
X101952380Y-88917438D01*
X101952380Y-88917438D02*
X101999999Y-88965057D01*
X101999999Y-88965057D02*
X102047618Y-89060295D01*
X102047618Y-89060295D02*
X102047618Y-89155533D01*
X102047618Y-89155533D02*
X101999999Y-89298390D01*
X101999999Y-89298390D02*
X101428571Y-89869819D01*
X101428571Y-89869819D02*
X102047618Y-89869819D01*
X130908207Y-77269819D02*
X130574874Y-76793628D01*
X130336779Y-77269819D02*
X130336779Y-76269819D01*
X130336779Y-76269819D02*
X130717731Y-76269819D01*
X130717731Y-76269819D02*
X130812969Y-76317438D01*
X130812969Y-76317438D02*
X130860588Y-76365057D01*
X130860588Y-76365057D02*
X130908207Y-76460295D01*
X130908207Y-76460295D02*
X130908207Y-76603152D01*
X130908207Y-76603152D02*
X130860588Y-76698390D01*
X130860588Y-76698390D02*
X130812969Y-76746009D01*
X130812969Y-76746009D02*
X130717731Y-76793628D01*
X130717731Y-76793628D02*
X130336779Y-76793628D01*
X131241541Y-76269819D02*
X131908207Y-77269819D01*
X131908207Y-76269819D02*
X131241541Y-77269819D01*
X90869819Y-81833332D02*
X91869819Y-81166666D01*
X90869819Y-81166666D02*
X91869819Y-81833332D01*
X91869819Y-80785713D02*
X91203152Y-80785713D01*
X90869819Y-80785713D02*
X90917438Y-80833332D01*
X90917438Y-80833332D02*
X90965057Y-80785713D01*
X90965057Y-80785713D02*
X90917438Y-80738094D01*
X90917438Y-80738094D02*
X90869819Y-80785713D01*
X90869819Y-80785713D02*
X90965057Y-80785713D01*
X91869819Y-79880952D02*
X91346009Y-79880952D01*
X91346009Y-79880952D02*
X91250771Y-79928571D01*
X91250771Y-79928571D02*
X91203152Y-80023809D01*
X91203152Y-80023809D02*
X91203152Y-80214285D01*
X91203152Y-80214285D02*
X91250771Y-80309523D01*
X91822200Y-79880952D02*
X91869819Y-79976190D01*
X91869819Y-79976190D02*
X91869819Y-80214285D01*
X91869819Y-80214285D02*
X91822200Y-80309523D01*
X91822200Y-80309523D02*
X91726961Y-80357142D01*
X91726961Y-80357142D02*
X91631723Y-80357142D01*
X91631723Y-80357142D02*
X91536485Y-80309523D01*
X91536485Y-80309523D02*
X91488866Y-80214285D01*
X91488866Y-80214285D02*
X91488866Y-79976190D01*
X91488866Y-79976190D02*
X91441247Y-79880952D01*
X91869819Y-79261904D02*
X91822200Y-79357142D01*
X91822200Y-79357142D02*
X91774580Y-79404761D01*
X91774580Y-79404761D02*
X91679342Y-79452380D01*
X91679342Y-79452380D02*
X91393628Y-79452380D01*
X91393628Y-79452380D02*
X91298390Y-79404761D01*
X91298390Y-79404761D02*
X91250771Y-79357142D01*
X91250771Y-79357142D02*
X91203152Y-79261904D01*
X91203152Y-79261904D02*
X91203152Y-79119047D01*
X91203152Y-79119047D02*
X91250771Y-79023809D01*
X91250771Y-79023809D02*
X91298390Y-78976190D01*
X91298390Y-78976190D02*
X91393628Y-78928571D01*
X91393628Y-78928571D02*
X91679342Y-78928571D01*
X91679342Y-78928571D02*
X91774580Y-78976190D01*
X91774580Y-78976190D02*
X91822200Y-79023809D01*
X91822200Y-79023809D02*
X91869819Y-79119047D01*
X91869819Y-79119047D02*
X91869819Y-79261904D01*
X91346009Y-77738094D02*
X91346009Y-77404761D01*
X91869819Y-77261904D02*
X91869819Y-77738094D01*
X91869819Y-77738094D02*
X90869819Y-77738094D01*
X90869819Y-77738094D02*
X90869819Y-77261904D01*
X91822200Y-76880951D02*
X91869819Y-76738094D01*
X91869819Y-76738094D02*
X91869819Y-76499999D01*
X91869819Y-76499999D02*
X91822200Y-76404761D01*
X91822200Y-76404761D02*
X91774580Y-76357142D01*
X91774580Y-76357142D02*
X91679342Y-76309523D01*
X91679342Y-76309523D02*
X91584104Y-76309523D01*
X91584104Y-76309523D02*
X91488866Y-76357142D01*
X91488866Y-76357142D02*
X91441247Y-76404761D01*
X91441247Y-76404761D02*
X91393628Y-76499999D01*
X91393628Y-76499999D02*
X91346009Y-76690475D01*
X91346009Y-76690475D02*
X91298390Y-76785713D01*
X91298390Y-76785713D02*
X91250771Y-76833332D01*
X91250771Y-76833332D02*
X91155533Y-76880951D01*
X91155533Y-76880951D02*
X91060295Y-76880951D01*
X91060295Y-76880951D02*
X90965057Y-76833332D01*
X90965057Y-76833332D02*
X90917438Y-76785713D01*
X90917438Y-76785713D02*
X90869819Y-76690475D01*
X90869819Y-76690475D02*
X90869819Y-76452380D01*
X90869819Y-76452380D02*
X90917438Y-76309523D01*
X91869819Y-75880951D02*
X90869819Y-75880951D01*
X90869819Y-75880951D02*
X90869819Y-75499999D01*
X90869819Y-75499999D02*
X90917438Y-75404761D01*
X90917438Y-75404761D02*
X90965057Y-75357142D01*
X90965057Y-75357142D02*
X91060295Y-75309523D01*
X91060295Y-75309523D02*
X91203152Y-75309523D01*
X91203152Y-75309523D02*
X91298390Y-75357142D01*
X91298390Y-75357142D02*
X91346009Y-75404761D01*
X91346009Y-75404761D02*
X91393628Y-75499999D01*
X91393628Y-75499999D02*
X91393628Y-75880951D01*
X90869819Y-74976189D02*
X90869819Y-74357142D01*
X90869819Y-74357142D02*
X91250771Y-74690475D01*
X91250771Y-74690475D02*
X91250771Y-74547618D01*
X91250771Y-74547618D02*
X91298390Y-74452380D01*
X91298390Y-74452380D02*
X91346009Y-74404761D01*
X91346009Y-74404761D02*
X91441247Y-74357142D01*
X91441247Y-74357142D02*
X91679342Y-74357142D01*
X91679342Y-74357142D02*
X91774580Y-74404761D01*
X91774580Y-74404761D02*
X91822200Y-74452380D01*
X91822200Y-74452380D02*
X91869819Y-74547618D01*
X91869819Y-74547618D02*
X91869819Y-74833332D01*
X91869819Y-74833332D02*
X91822200Y-74928570D01*
X91822200Y-74928570D02*
X91774580Y-74976189D01*
X90965057Y-73976189D02*
X90917438Y-73928570D01*
X90917438Y-73928570D02*
X90869819Y-73833332D01*
X90869819Y-73833332D02*
X90869819Y-73595237D01*
X90869819Y-73595237D02*
X90917438Y-73499999D01*
X90917438Y-73499999D02*
X90965057Y-73452380D01*
X90965057Y-73452380D02*
X91060295Y-73404761D01*
X91060295Y-73404761D02*
X91155533Y-73404761D01*
X91155533Y-73404761D02*
X91298390Y-73452380D01*
X91298390Y-73452380D02*
X91869819Y-74023808D01*
X91869819Y-74023808D02*
X91869819Y-73404761D01*
X91488866Y-72976189D02*
X91488866Y-72214285D01*
X91774580Y-71166666D02*
X91822200Y-71214285D01*
X91822200Y-71214285D02*
X91869819Y-71357142D01*
X91869819Y-71357142D02*
X91869819Y-71452380D01*
X91869819Y-71452380D02*
X91822200Y-71595237D01*
X91822200Y-71595237D02*
X91726961Y-71690475D01*
X91726961Y-71690475D02*
X91631723Y-71738094D01*
X91631723Y-71738094D02*
X91441247Y-71785713D01*
X91441247Y-71785713D02*
X91298390Y-71785713D01*
X91298390Y-71785713D02*
X91107914Y-71738094D01*
X91107914Y-71738094D02*
X91012676Y-71690475D01*
X91012676Y-71690475D02*
X90917438Y-71595237D01*
X90917438Y-71595237D02*
X90869819Y-71452380D01*
X90869819Y-71452380D02*
X90869819Y-71357142D01*
X90869819Y-71357142D02*
X90917438Y-71214285D01*
X90917438Y-71214285D02*
X90965057Y-71166666D01*
X90869819Y-70309523D02*
X90869819Y-70499999D01*
X90869819Y-70499999D02*
X90917438Y-70595237D01*
X90917438Y-70595237D02*
X90965057Y-70642856D01*
X90965057Y-70642856D02*
X91107914Y-70738094D01*
X91107914Y-70738094D02*
X91298390Y-70785713D01*
X91298390Y-70785713D02*
X91679342Y-70785713D01*
X91679342Y-70785713D02*
X91774580Y-70738094D01*
X91774580Y-70738094D02*
X91822200Y-70690475D01*
X91822200Y-70690475D02*
X91869819Y-70595237D01*
X91869819Y-70595237D02*
X91869819Y-70404761D01*
X91869819Y-70404761D02*
X91822200Y-70309523D01*
X91822200Y-70309523D02*
X91774580Y-70261904D01*
X91774580Y-70261904D02*
X91679342Y-70214285D01*
X91679342Y-70214285D02*
X91441247Y-70214285D01*
X91441247Y-70214285D02*
X91346009Y-70261904D01*
X91346009Y-70261904D02*
X91298390Y-70309523D01*
X91298390Y-70309523D02*
X91250771Y-70404761D01*
X91250771Y-70404761D02*
X91250771Y-70595237D01*
X91250771Y-70595237D02*
X91298390Y-70690475D01*
X91298390Y-70690475D02*
X91346009Y-70738094D01*
X91346009Y-70738094D02*
X91441247Y-70785713D01*
X118033333Y-81954819D02*
X117557143Y-81954819D01*
X117557143Y-81954819D02*
X117557143Y-80954819D01*
X118890476Y-81954819D02*
X118319048Y-81954819D01*
X118604762Y-81954819D02*
X118604762Y-80954819D01*
X118604762Y-80954819D02*
X118509524Y-81097676D01*
X118509524Y-81097676D02*
X118414286Y-81192914D01*
X118414286Y-81192914D02*
X118319048Y-81240533D01*
D11*
%TO.C,D1*%
X121090000Y-82350000D02*
X121090000Y-85650000D01*
X121090000Y-82350000D02*
X126600000Y-82350000D01*
X121090000Y-85650000D02*
X126600000Y-85650000D01*
D12*
%TO.C,U1*%
X93165000Y-86053000D02*
X93165000Y-68908000D01*
X95070000Y-87958000D02*
X109040000Y-87958000D01*
D13*
X97560000Y-67003000D02*
X97563728Y-65992728D01*
X98063728Y-65493000D02*
X106059000Y-65493000D01*
X106559000Y-65993000D02*
X106559000Y-67003000D01*
D12*
X109040000Y-67003000D02*
X95070000Y-67003000D01*
X110945000Y-86053000D02*
X110945000Y-68908000D01*
X93165000Y-68904000D02*
G75*
G02*
X95070000Y-66999000I1905001J-1D01*
G01*
X95070000Y-87958000D02*
G75*
G02*
X93165000Y-86053000I1J1905001D01*
G01*
D13*
X97563728Y-65992728D02*
G75*
G02*
X98063728Y-65493001I500018J-291D01*
G01*
X106059000Y-65493000D02*
G75*
G02*
X106559000Y-65993000I0J-500000D01*
G01*
D12*
X109040000Y-67003000D02*
G75*
G02*
X110945000Y-68908000I0J-1905000D01*
G01*
X110945000Y-86053000D02*
G75*
G02*
X109040000Y-87958000I-1905000J0D01*
G01*
D14*
X93207000Y-67419000D02*
G75*
G02*
X92703000Y-67419000I-252000J0D01*
G01*
X92703000Y-67419000D02*
G75*
G02*
X93207000Y-67419000I252000J0D01*
G01*
X94481000Y-68136000D02*
G75*
G02*
X93977000Y-68136000I-252000J0D01*
G01*
X93977000Y-68136000D02*
G75*
G02*
X94481000Y-68136000I252000J0D01*
G01*
D11*
%TO.C,R10*%
X100027064Y-94765000D02*
X99572936Y-94765000D01*
X100027064Y-96235000D02*
X99572936Y-96235000D01*
%TO.C,J2*%
X114800000Y-94700000D02*
X117650000Y-94700000D01*
X114800000Y-97700000D02*
X114800000Y-94700000D01*
X114800000Y-97700000D02*
X117650000Y-97700000D01*
X117650000Y-97700000D02*
X117650000Y-94700000D01*
%TO.C,R1*%
X122314564Y-71265000D02*
X121860436Y-71265000D01*
X122314564Y-72735000D02*
X121860436Y-72735000D01*
%TO.C,C6*%
X129365000Y-83161252D02*
X129365000Y-82638748D01*
X130835000Y-83161252D02*
X130835000Y-82638748D01*
%TO.C,C1*%
X123561252Y-87665000D02*
X123038748Y-87665000D01*
X123561252Y-89135000D02*
X123038748Y-89135000D01*
%TO.C,C5*%
X119090000Y-75488748D02*
X119090000Y-76911252D01*
X120910000Y-75488748D02*
X120910000Y-76911252D01*
%TO.C,L1*%
X113790000Y-78790000D02*
X119210000Y-78790000D01*
X113790000Y-79990000D02*
X113790000Y-78790000D01*
X113790000Y-84210000D02*
X113790000Y-83010000D01*
X119210000Y-78790000D02*
X119210000Y-79990000D01*
X119210000Y-83010000D02*
X119210000Y-84210000D01*
X119210000Y-84210000D02*
X113790000Y-84210000D01*
%TO.C,Q1*%
X93440000Y-93740000D02*
X93490000Y-93740000D01*
X93440000Y-95260000D02*
X93440000Y-93740000D01*
X94440000Y-95260000D02*
X93440000Y-95260000D01*
X94610000Y-93740000D02*
X95390000Y-93740000D01*
X96510000Y-93740000D02*
X96560000Y-93740000D01*
X96560000Y-93740000D02*
X96560000Y-95260000D01*
X96560000Y-95260000D02*
X95560000Y-95260000D01*
X95380000Y-93200000D02*
X95050000Y-93440000D01*
X95050000Y-92960000D01*
X95380000Y-93200000D01*
G36*
X95380000Y-93200000D02*
G01*
X95050000Y-93440000D01*
X95050000Y-92960000D01*
X95380000Y-93200000D01*
G37*
%TO.C,R5*%
X116814564Y-87765000D02*
X116360436Y-87765000D01*
X116814564Y-89235000D02*
X116360436Y-89235000D01*
%TO.C,C3*%
X124590000Y-71186252D02*
X124590000Y-69763748D01*
X126410000Y-71186252D02*
X126410000Y-69763748D01*
%TO.C,R9*%
X95227064Y-89865000D02*
X94772936Y-89865000D01*
X95227064Y-91335000D02*
X94772936Y-91335000D01*
%TO.C,U3*%
X121940000Y-74940000D02*
X122035000Y-74940000D01*
X121940000Y-79060000D02*
X121940000Y-74940000D01*
X122035000Y-79060000D02*
X121940000Y-79060000D01*
X126965000Y-74940000D02*
X127060000Y-74940000D01*
X127060000Y-74940000D02*
X127060000Y-79060000D01*
X127060000Y-79060000D02*
X126965000Y-79060000D01*
X122030000Y-79600000D02*
X121700000Y-79840000D01*
X121700000Y-79360000D01*
X122030000Y-79600000D01*
G36*
X122030000Y-79600000D02*
G01*
X121700000Y-79840000D01*
X121700000Y-79360000D01*
X122030000Y-79600000D01*
G37*
%TO.C,C2*%
X127590000Y-71186252D02*
X127590000Y-69763748D01*
X129410000Y-71186252D02*
X129410000Y-69763748D01*
%TO.C,J5*%
X139500000Y-87300000D02*
X142350000Y-87300000D01*
X139500000Y-90300000D02*
X139500000Y-87300000D01*
X139500000Y-90300000D02*
X142350000Y-90300000D01*
X142350000Y-90300000D02*
X142350000Y-87300000D01*
%TO.C,J4*%
X139500000Y-91100000D02*
X142350000Y-91100000D01*
X139500000Y-94100000D02*
X139500000Y-91100000D01*
X139500000Y-94100000D02*
X142350000Y-94100000D01*
X142350000Y-94100000D02*
X142350000Y-91100000D01*
%TO.C,C4*%
X135561252Y-88565000D02*
X135038748Y-88565000D01*
X135561252Y-90035000D02*
X135038748Y-90035000D01*
%TO.C,R4*%
X128265000Y-74860436D02*
X128265000Y-75314564D01*
X129735000Y-74860436D02*
X129735000Y-75314564D01*
%TO.C,R8*%
X109965000Y-95427064D02*
X109965000Y-94972936D01*
X111435000Y-95427064D02*
X111435000Y-94972936D01*
%TO.C,C7*%
X116090000Y-69763748D02*
X116090000Y-71186252D01*
X117910000Y-69763748D02*
X117910000Y-71186252D01*
%TO.C,R2*%
X121860436Y-68265000D02*
X122314564Y-68265000D01*
X121860436Y-69735000D02*
X122314564Y-69735000D01*
%TO.C,C8*%
X113090000Y-69763748D02*
X113090000Y-71186252D01*
X114910000Y-69763748D02*
X114910000Y-71186252D01*
%TO.C,J3*%
X99500000Y-90300000D02*
X102350000Y-90300000D01*
X99500000Y-93300000D02*
X99500000Y-90300000D01*
X99500000Y-93300000D02*
X102350000Y-93300000D01*
X102350000Y-93300000D02*
X102350000Y-90300000D01*
%TO.C,J1*%
X131545000Y-69390000D02*
X131545000Y-70810000D01*
X131545000Y-70810000D02*
X136045000Y-70810000D01*
X131545000Y-80590000D02*
X136045000Y-80590000D01*
X131545000Y-82010000D02*
X131545000Y-80590000D01*
X131855000Y-79150000D02*
X132455000Y-79450000D01*
X131855000Y-79750000D02*
X131855000Y-79150000D01*
X132455000Y-79450000D02*
X131855000Y-79750000D01*
X136045000Y-70810000D02*
X136045000Y-75700000D01*
X136045000Y-80590000D02*
X136045000Y-75700000D01*
X137155000Y-71700000D02*
X137155000Y-72200000D01*
X137155000Y-72200000D02*
X142655000Y-72200000D01*
X137155000Y-74200000D02*
X137155000Y-74700000D01*
X137155000Y-74700000D02*
X142655000Y-74700000D01*
X137155000Y-76700000D02*
X137155000Y-77200000D01*
X137155000Y-77200000D02*
X142655000Y-77200000D01*
X137155000Y-79200000D02*
X137155000Y-79700000D01*
X137155000Y-79700000D02*
X142655000Y-79700000D01*
X142655000Y-71700000D02*
X137155000Y-71700000D01*
X142655000Y-72200000D02*
X142655000Y-71700000D01*
X142655000Y-74200000D02*
X137155000Y-74200000D01*
X142655000Y-74700000D02*
X142655000Y-74200000D01*
X142655000Y-76700000D02*
X137155000Y-76700000D01*
X142655000Y-77200000D02*
X142655000Y-76700000D01*
X142655000Y-79200000D02*
X137155000Y-79200000D01*
X142655000Y-79700000D02*
X142655000Y-79200000D01*
X143265000Y-69390000D02*
X131545000Y-69390000D01*
X143265000Y-75700000D02*
X143265000Y-69390000D01*
X143265000Y-75700000D02*
X143265000Y-82010000D01*
X143265000Y-82010000D02*
X131545000Y-82010000D01*
%TO.C,U2*%
X128394432Y-88315000D02*
X130760000Y-88315000D01*
X130760000Y-90685000D02*
X128240000Y-90685000D01*
X128100000Y-88310000D02*
X127960000Y-88120000D01*
X128240000Y-88120000D01*
X128100000Y-88310000D01*
G36*
X128100000Y-88310000D02*
G01*
X127960000Y-88120000D01*
X128240000Y-88120000D01*
X128100000Y-88310000D01*
G37*
%TO.C,R6*%
X128265000Y-79237064D02*
X128265000Y-78782936D01*
X129735000Y-79237064D02*
X129735000Y-78782936D01*
%TO.C,R7*%
X106727064Y-89765000D02*
X106272936Y-89765000D01*
X106727064Y-91235000D02*
X106272936Y-91235000D01*
%TO.C,R3*%
X117814564Y-85265000D02*
X117360436Y-85265000D01*
X117814564Y-86735000D02*
X117360436Y-86735000D01*
%TO.C,Q2*%
X104940000Y-94240000D02*
X104990000Y-94240000D01*
X104940000Y-95760000D02*
X104940000Y-94240000D01*
X105940000Y-95760000D02*
X104940000Y-95760000D01*
X106110000Y-94240000D02*
X106890000Y-94240000D01*
X108010000Y-94240000D02*
X108060000Y-94240000D01*
X108060000Y-94240000D02*
X108060000Y-95760000D01*
X108060000Y-95760000D02*
X107060000Y-95760000D01*
X106880000Y-93700000D02*
X106550000Y-93940000D01*
X106550000Y-93460000D01*
X106880000Y-93700000D01*
G36*
X106880000Y-93700000D02*
G01*
X106550000Y-93940000D01*
X106550000Y-93460000D01*
X106880000Y-93700000D01*
G37*
%TD*%
%LPC*%
D15*
%TO.C,D1*%
X122600000Y-84000000D03*
X126600000Y-84000000D03*
%TD*%
D16*
%TO.C,U1*%
X94000000Y-69920000D03*
X94000000Y-72460000D03*
X94000000Y-75000000D03*
X94000000Y-77540000D03*
X94000000Y-80080000D03*
X94000000Y-82620000D03*
X94000000Y-85160000D03*
X110165000Y-85160000D03*
X110165000Y-82620000D03*
X110165000Y-80080000D03*
X110165000Y-77540000D03*
X110165000Y-75000000D03*
X110165000Y-72460000D03*
X110165000Y-69920000D03*
D17*
X100273600Y-83071700D03*
X102813600Y-83071700D03*
D18*
X100781600Y-68898500D03*
X103321600Y-68898500D03*
X100781600Y-71438500D03*
X103321600Y-71438500D03*
X100781600Y-73978500D03*
X103321600Y-73978500D03*
X100781600Y-76518500D03*
X103229000Y-76461700D03*
%TD*%
D19*
%TO.C,R10*%
X100712500Y-95500000D03*
X98887500Y-95500000D03*
%TD*%
D20*
%TO.C,J2*%
X116200000Y-96200000D03*
%TD*%
D19*
%TO.C,R1*%
X123000000Y-72000000D03*
X121175000Y-72000000D03*
%TD*%
D21*
%TO.C,C6*%
X130100000Y-83850000D03*
X130100000Y-81950000D03*
%TD*%
D22*
%TO.C,C1*%
X124250000Y-88400000D03*
X122350000Y-88400000D03*
%TD*%
D23*
%TO.C,C5*%
X120000000Y-74725000D03*
X120000000Y-77675000D03*
%TD*%
D24*
%TO.C,L1*%
X118550000Y-81500000D03*
X114450000Y-81500000D03*
%TD*%
D25*
%TO.C,Q1*%
X95950000Y-93562500D03*
X94050000Y-93562500D03*
X95000000Y-95437500D03*
%TD*%
D19*
%TO.C,R5*%
X117500000Y-88500000D03*
X115675000Y-88500000D03*
%TD*%
D26*
%TO.C,C3*%
X125500000Y-71950000D03*
X125500000Y-69000000D03*
%TD*%
D19*
%TO.C,R9*%
X95912500Y-90600000D03*
X94087500Y-90600000D03*
%TD*%
D27*
%TO.C,U3*%
X122595000Y-79475000D03*
X123865000Y-79475000D03*
X125135000Y-79475000D03*
X126405000Y-79475000D03*
X126405000Y-74525000D03*
X125135000Y-74525000D03*
X123865000Y-74525000D03*
X122595000Y-74525000D03*
D28*
X124500000Y-77000000D03*
%TD*%
D26*
%TO.C,C2*%
X128500000Y-71950000D03*
X128500000Y-69000000D03*
%TD*%
D20*
%TO.C,J5*%
X140900000Y-88800000D03*
%TD*%
%TO.C,J4*%
X140900000Y-92600000D03*
%TD*%
D22*
%TO.C,C4*%
X136250000Y-89300000D03*
X134350000Y-89300000D03*
%TD*%
D29*
%TO.C,R4*%
X129000000Y-74175000D03*
X129000000Y-76000000D03*
%TD*%
D30*
%TO.C,R8*%
X110700000Y-96112500D03*
X110700000Y-94287500D03*
%TD*%
D23*
%TO.C,C7*%
X117000000Y-69000000D03*
X117000000Y-71950000D03*
%TD*%
D31*
%TO.C,R2*%
X121175000Y-69000000D03*
X123000000Y-69000000D03*
%TD*%
D23*
%TO.C,C8*%
X114000000Y-69000000D03*
X114000000Y-71950000D03*
%TD*%
D20*
%TO.C,J3*%
X100900000Y-91800000D03*
%TD*%
D32*
%TO.C,J1*%
X133955000Y-79450000D03*
D33*
X133955000Y-76950000D03*
X133955000Y-74450000D03*
X133955000Y-71950000D03*
%TD*%
D34*
%TO.C,U2*%
X128100000Y-88750000D03*
X128100000Y-89250000D03*
X128100000Y-89750000D03*
X128100000Y-90250000D03*
X130900000Y-90250000D03*
X130900000Y-89750000D03*
X130900000Y-89250000D03*
X130900000Y-88750000D03*
%TD*%
D30*
%TO.C,R6*%
X129000000Y-79922500D03*
X129000000Y-78097500D03*
%TD*%
D19*
%TO.C,R7*%
X107412500Y-90500000D03*
X105587500Y-90500000D03*
%TD*%
%TO.C,R3*%
X118500000Y-86000000D03*
X116675000Y-86000000D03*
%TD*%
D25*
%TO.C,Q2*%
X107450000Y-94062500D03*
X105550000Y-94062500D03*
X106500000Y-95937500D03*
%TD*%
%LPD*%
M02*
